<?xml version="1.0" encoding="UTF-8"?>
<svg version="1.1" xmlns="http://www.w3.org/2000/svg" width="1024" height="1024">
<path d="M0 0 C337.92 0 675.84 0 1024 0 C1024 337.92 1024 675.84 1024 1024 C686.08 1024 348.16 1024 0 1024 C0 686.08 0 348.16 0 0 Z " fill="#FEFEFD" transform="translate(0,0)"/>
<path d="M0 0 C3.67446149 1.58337451 6.31205938 3.8772082 9.3125 6.5 C50.87198659 41.87980532 108.32127427 58.79393529 161 69 C161.64336304 69.12526062 162.28672607 69.25052124 162.94958496 69.37957764 C209.94728227 78.46667256 258.20922718 81.13456772 305.96875 78.22265625 C311.31143352 77.90012209 316.64972183 77.90030538 322 78 C323.09187199 82.64514212 323.39465392 87.27763922 323.71875 92.0234375 C323.78155151 92.91946686 323.84435303 93.81549622 323.90905762 94.73867798 C324.04181955 96.65004957 324.17283649 98.56154304 324.30224609 100.47314453 C324.49322351 103.27556129 324.69344703 106.07719936 324.89453125 108.87890625 C326.74798639 135.44543548 327.23607813 162.06273964 327.25 188.6875 C327.25088371 189.7047176 327.25088371 189.7047176 327.25178528 190.74248505 C327.27641323 231.31762159 325.02040919 271.72811189 320 312 C319.90654297 312.75609558 319.81308594 313.51219116 319.71679688 314.29119873 C317.01857976 336.03582302 313.62022534 357.57053918 309 379 C308.78310516 380.00616364 308.78310516 380.00616364 308.56182861 381.03265381 C299.0844587 424.74268148 285.80616052 466.800784 266 507 C265.45762695 508.1039209 264.91525391 509.2078418 264.35644531 510.34521484 C246.09693522 547.2066667 222.67798462 580.38632741 195.0234375 610.7578125 C193.26657604 612.70460493 191.56779748 614.68535882 189.875 616.6875 C182.24602782 625.44205824 173.81873109 633.84538934 164.9453125 641.3359375 C162.44606264 643.47385003 160.04293905 645.70814672 157.625 647.9375 C152.58001553 652.52822939 147.37851299 656.80885913 142 661 C140.64417791 662.07377275 139.28874205 663.14803327 137.93359375 664.22265625 C128.81312026 671.42355353 119.54834115 678.27971031 109.88525391 684.73388672 C108.08311816 685.94417887 106.2959521 687.17367395 104.51171875 688.41015625 C78.03684645 706.61952143 49.07768401 721.70650568 19.76953125 734.75927734 C17.32448456 735.85463412 14.894621 736.97629281 12.46875 738.11328125 C11.22955966 738.68054679 9.99001812 739.24704625 8.75 739.8125 C7.75484375 740.27269531 6.7596875 740.73289062 5.734375 741.20703125 C0.4627531 742.7358016 -4.09055061 740.72421104 -8.9296875 738.55859375 C-10.04633789 738.06166016 -11.16298828 737.56472656 -12.31347656 737.05273438 C-13.4887793 736.51970703 -14.66408203 735.98667969 -15.875 735.4375 C-17.10378494 734.88464069 -18.33262649 734.33190717 -19.56152344 733.77929688 C-27.76659379 730.07558527 -35.89086521 726.25430083 -43.87646484 722.09863281 C-46.3326244 720.82791334 -48.80111118 719.58266755 -51.26953125 718.3359375 C-92.18737391 697.51833329 -130.47808951 670.66576001 -163.78125 639.03515625 C-166.15239298 636.7843379 -168.56508978 634.61115822 -171.0625 632.5 C-179.28152723 625.41649627 -187.13022449 617.49724032 -194.12890625 609.20703125 C-195.65425033 607.40782581 -197.2045763 605.64402702 -198.77734375 603.88671875 C-207.19013139 594.42918878 -214.84501628 584.50213378 -222.32080078 574.29199219 C-223.7765587 572.30498211 -225.24353218 570.32705315 -226.71484375 568.3515625 C-242.56337343 546.86603838 -255.53560951 523.07116082 -267 499 C-267.33531738 498.29891113 -267.67063477 497.59782227 -268.01611328 496.87548828 C-284.83343621 461.40352448 -296.47406093 424.25782751 -305 386 C-305.38599365 384.29408691 -305.38599365 384.29408691 -305.77978516 382.55371094 C-313.29071947 349.07558827 -317.70592932 315.12242665 -321 281 C-321.11327637 279.845 -321.22655273 278.69 -321.34326172 277.5 C-321.63408713 274.50077682 -321.91478484 271.50091969 -322.1875 268.5 C-322.25936523 267.72076172 -322.33123047 266.94152344 -322.40527344 266.13867188 C-323.84939184 249.13329713 -324.16148508 232.08823437 -324.16796875 215.03125 C-324.17120057 212.97513814 -324.17456589 210.91902648 -324.17805481 208.86291504 C-324.18398853 204.57706167 -324.18590099 200.29122827 -324.18530273 196.00537109 C-324.18522198 191.69705969 -324.1920938 187.38885577 -324.20581055 183.08056641 C-324.31609157 147.89914216 -323.11679196 113.05138226 -320 78 C-319.36763428 78.03029297 -318.73526855 78.06058594 -318.08374023 78.09179688 C-228.75753444 82.17815449 -135.69413654 75.65987615 -54 36 C-53.20126465 35.61247559 -52.4025293 35.22495117 -51.57958984 34.82568359 C-32.86102381 25.60430161 -15.62885733 13.81154834 0 0 Z " fill="#FED30E" transform="translate(511,146)"/>
<path d="M0 0 C8.77130043 1.34222747 16.57258652 7.1269098 22 14 C32 28.78976234 32 28.78976234 32 35 C33.72476563 34.96132813 33.72476563 34.96132813 35.484375 34.921875 C39.84437266 34.92570965 43.96848322 35.46416451 48.25 36.25 C48.99088867 36.38567383 49.73177734 36.52134766 50.49511719 36.66113281 C77.11309342 41.76800309 97.19884782 58.38239518 113.6640625 79.09765625 C116.32583475 82.4048415 119.09302161 85.60660952 121.875 88.8125 C126.3833682 94.02809123 130.6936318 99.36421644 134.91870117 104.81079102 C138.52501806 109.4426563 142.27964656 113.92945548 146.09057617 118.39355469 C149.39454514 122.2683541 152.60084671 126.20664564 155.765625 130.1953125 C158.69806925 133.87624777 161.65971764 137.53299663 164.625 141.1875 C165.16366699 141.85305908 165.70233398 142.51861816 166.25732422 143.2043457 C169.39223273 147.06561203 172.58788263 150.84736658 175.91162109 154.5480957 C177 156 177 156 177 158 C181.02371101 155.03969833 184.01001703 151.70692062 187 147.75 C187.96354858 146.49900136 188.9284494 145.24904336 189.89453125 144 C190.39807129 143.34773437 190.90161133 142.69546875 191.42041016 142.0234375 C194.12566286 138.55803806 196.9071385 135.15521626 199.6875 131.75 C200.79571221 130.39073856 201.90378909 129.03136676 203.01171875 127.671875 C203.52911621 127.03701172 204.04651367 126.40214844 204.57958984 125.74804688 C206.39913874 123.50879454 208.20172548 121.25636129 210 119 C215.11535343 112.58688249 220.29921659 106.2293413 225.47949219 99.86865234 C226.79324732 98.254092 228.1039421 96.63704236 229.4140625 95.01953125 C235.47312054 87.56138162 241.7030154 80.25739426 248 73 C248.79664063 72.07703125 249.59328125 71.1540625 250.4140625 70.203125 C265.44581006 53.09986452 284.91824775 39.27171255 308 36 C310.78075485 35.931911 313.53364739 35.90521664 316.3125 35.9375 C317.42334961 35.94426758 317.42334961 35.94426758 318.55664062 35.95117188 C320.37112899 35.96287825 322.18557534 35.98081102 324 36 C324.103125 35.30261719 324.20625 34.60523438 324.3125 33.88671875 C327.21240571 21.71041012 336.38160817 10.39726245 346.8828125 3.83984375 C349.85755133 2.65982742 352.8349875 2.36811296 356 2 C355.80664062 3.27230469 355.61328125 4.54460937 355.4140625 5.85546875 C353.5237156 18.54328267 352.10057462 31.22038645 351 44 C353.31 44.66 355.62 45.32 358 46 C359.03447266 44.65808594 359.03447266 44.65808594 360.08984375 43.2890625 C381.84508043 15.22457351 381.84508043 15.22457351 396 9 C396.66 9 397.32 9 398 9 C395.20262992 19.31671375 391.24228895 29.23279705 387.46484375 39.21850586 C386.58538344 41.54683896 385.71050918 43.87685838 384.8359375 46.20703125 C384.56615082 46.91543655 384.29636414 47.62384186 384.0184021 48.35371399 C382.0488332 53.56038799 382.0488332 53.56038799 381 59 C382.5418112 61.19729205 382.5418112 61.19729205 384.875 63.125 C389.17781847 67.1493618 392.85774977 71.36970138 396.53515625 75.96484375 C399.848714 80.0450884 403.29004472 84.01018772 406.7512207 87.96557617 C407.23034912 88.51834229 407.70947754 89.0711084 408.203125 89.640625 C408.62239258 90.12047852 409.04166016 90.60033203 409.47363281 91.09472656 C411.77463356 93.96692904 413.86090513 97.00526718 416 100 C412.04 104.29 408.08 108.58 404 113 C405.44599935 117.33799805 406.33457134 119.87628334 408.6953125 123.484375 C409.23800781 124.32363525 409.78070312 125.16289551 410.33984375 126.02758789 C410.92894531 126.92598389 411.51804687 127.82437988 412.125 128.75 C417.53783056 137.11714558 422.81471498 145.55256938 428 154.0625 C435.03690019 165.57883287 442.40677809 176.84386005 450 188 C445.80459569 193.0616357 441.39683279 197.61381877 436.5625 202.0625 C435.86874268 202.70662842 435.17498535 203.35075684 434.46020508 204.0144043 C433.02001782 205.35149966 431.57852311 206.6871881 430.13574219 208.02148438 C427.44051614 210.51829644 424.75945788 213.03000471 422.07861328 215.54223633 C419.6329627 217.83160017 417.18058894 220.11366322 414.7265625 222.39404297 C413.5870461 223.4539608 412.44899238 224.5154536 411.3125 225.57861328 C409.7752687 227.01561045 408.23233645 228.44618815 406.6875 229.875 C405.82511719 230.67679688 404.96273438 231.47859375 404.07421875 232.3046875 C402 234 402 234 400 234 C398.67822266 232.35791016 398.67822266 232.35791016 397.1640625 230.0390625 C396.60025879 229.18368896 396.03645508 228.32831543 395.45556641 227.44702148 C394.85147949 226.51575439 394.24739258 225.5844873 393.625 224.625 C392.35428019 222.69133164 391.08344486 220.7577392 389.8125 218.82421875 C389.173125 217.84630371 388.53375 216.86838867 387.875 215.86083984 C385.14994623 211.70300389 382.38832468 207.56995493 379.625 203.4375 C376.94784955 199.42704603 374.27168184 195.4161219 371.6171875 191.390625 C370.91851563 190.33359375 370.21984375 189.2765625 369.5 188.1875 C368.9121875 187.29417969 368.324375 186.40085937 367.71875 185.48046875 C365.93112882 182.90060637 363.96071459 180.45089324 362 178 C355.07 184.93 348.14 191.86 341 199 C335.59768619 196.2988431 332.94389215 192.31882351 329.27050781 187.61474609 C327.98755444 185.98418237 326.67986215 184.37622565 325.3671875 182.76953125 C312.06021278 166.28517685 310.63793291 151.53724968 311 131 C310.34 131 309.68 131 309 131 C308.78601563 131.54011719 308.57203125 132.08023438 308.3515625 132.63671875 C306.5136105 135.85047876 304.00315803 138.24897543 301.375 140.8125 C300.56748291 141.61034912 300.56748291 141.61034912 299.74365234 142.42431641 C296.77912937 145.33215296 293.76458007 148.1552475 290.625 150.875 C290.00753906 151.41382813 289.39007812 151.95265625 288.75390625 152.5078125 C287.59878492 153.49056606 286.41890244 154.44504189 285.21484375 155.3671875 C282.71518225 157.4591028 281.20789741 159.0293621 280.51123047 162.28198242 C280.11902779 167.28743431 280.00344776 172.11443075 280.31640625 177.12890625 C281.19833897 195.07996951 281.19833897 195.07996951 275.17578125 202.41015625 C271.45572883 206.29088699 267.41906339 209.72120151 263.23364258 213.08691406 C259.76181241 216.06049164 256.93392869 219.51087279 254 223 C252.70587997 224.35117999 251.39902539 225.69075063 250.0625 227 C249.47597656 227.5775 248.88945313 228.155 248.28515625 228.75 C247.86105469 229.1625 247.43695312 229.575 247 230 C248.35231187 233.02977429 249.85480543 235.08472613 252.23046875 237.390625 C252.86919922 238.01839844 253.50792969 238.64617187 254.16601562 239.29296875 C254.83310547 239.93878906 255.50019531 240.58460938 256.1875 241.25 C259.94679975 244.90830364 263.66026641 248.54019825 267.05078125 252.546875 C272.95677037 259.40673518 279.57154814 265.63620211 286 272 C288.66967432 274.64282415 291.33584008 277.28911824 294 279.9375 C294.8971875 280.82223999 294.8971875 280.82223999 295.8125 281.72485352 C298.73378222 284.6294264 301.53515688 287.58235168 304.21391296 290.71292114 C307.97633522 295.03151847 311.95583955 299.0899075 316.01489258 303.12841797 C317.16740509 304.28114952 317.16740509 304.28114952 318.34320068 305.45716858 C320.8579452 307.9712221 323.37620283 310.48172443 325.89453125 312.9921875 C327.65115385 314.74694267 329.40755404 316.5019205 331.16374207 318.2571106 C335.76877359 322.85833955 340.3768003 327.45655732 344.98547363 332.05413818 C349.68679599 336.74520895 354.38526986 341.43912977 359.08398438 346.1328125 C367.89999478 354.93859741 376.71877086 363.74160618 385.53968525 372.54247856 C386.69376128 373.69434706 387.84702721 374.84702721 389 376 C388.38253906 376.66644531 387.76507812 377.33289063 387.12890625 378.01953125 C382.88001396 382.64351601 378.72651713 387.27257009 374.8125 392.1875 C365.33895579 403.85733301 354.63056527 414.46872508 344.04983521 425.12539673 C342.98296449 426.20038514 341.91757096 427.27684179 340.85372925 428.35482788 C339.3439798 429.88255371 337.82734712 431.40310583 336.30859375 432.921875 C335.43001709 433.80456055 334.55144043 434.68724609 333.64624023 435.59667969 C331 438 331 438 325 442 C276.82 393.82 228.64 345.64 179 296 C174.83595239 299.56918366 170.9372718 302.93929134 167.10961914 306.79272461 C166.2150148 307.69063217 165.32041046 308.58853973 164.3986969 309.51365662 C163.93230867 309.9841638 163.46592045 310.45467098 162.98539925 310.93943596 C161.50227238 312.4355148 160.01587962 313.92828235 158.52867126 315.42030334 C154.83721287 319.12501763 151.15124915 322.83518288 147.46514893 326.54522705 C144.34138184 329.68886406 141.21547854 332.8303484 138.0868206 335.96911812 C136.63586006 337.42647161 135.18799054 338.88684603 133.74024963 340.34739685 C129.16238316 344.94210721 124.54333599 349.40866592 119.60745239 353.61863708 C117.5783393 355.36235379 115.68573652 357.21581651 113.8125 359.125 C112.89404297 360.05699219 112.89404297 360.05699219 111.95703125 361.0078125 C111.31121094 361.66523437 110.66539062 362.32265625 110 363 C108.33417612 364.66751666 106.66735809 366.33401863 105 368 C103.86308603 369.13681853 102.72622351 370.27368852 101.58940125 371.41059875 C66.29470062 406.70529938 66.29470062 406.70529938 31 442 C29.73683169 441.06958346 28.47603107 440.13595206 27.21620178 439.20101929 C26.51383424 438.68145849 25.81146669 438.1618977 25.08781528 437.62659264 C21.85409496 435.10723869 18.99780081 432.26446461 16.12109375 429.3515625 C15.50532974 428.73534027 14.88956573 428.11911804 14.25514221 427.48422241 C12.96466648 426.19074964 11.67659726 424.89487175 10.39086914 423.59667969 C8.44402788 421.63158908 6.48931088 419.67461229 4.53320312 417.71875 C-1.51969262 411.64895024 -7.48486938 405.56937153 -13 399 C-14.09201487 397.73807974 -15.18578969 396.47768048 -16.28125 395.21875 C-17.35431272 393.97929309 -18.42722817 392.73970868 -19.5 391.5 C-23.98525149 386.32034938 -28.47760955 381.14730258 -33 376 C-32.32130859 375.32203369 -31.64261719 374.64406738 -30.94335938 373.94555664 C-28.2359945 371.23825113 -25.5354384 368.52421436 -22.83532715 365.80967712 C-20.10966679 363.07058508 -17.38130856 360.33418685 -14.65283203 357.59790039 C-13.21671522 356.15673486 -11.78149443 354.7146759 -10.34716797 353.27172852 C-8.26506831 351.17747096 -6.17973038 349.08648507 -4.09375 346.99609375 C-3.45715454 346.35433701 -2.82055908 345.71258026 -2.16467285 345.05137634 C0.41961413 342.46676626 2.95789963 340.03360663 5.81835938 337.75024414 C8.21014864 336.01182598 8.21014864 336.01182598 10 333 C10.66 333 11.32 333 12 333 C12.226875 332.443125 12.45375 331.88625 12.6875 331.3125 C14.37550036 328.33840412 16.46676517 326.27991135 19 324 C19.66 324 20.32 324 21 324 C21.37125 323.13375 21.37125 323.13375 21.75 322.25 C23.18299988 319.67060021 24.78424676 317.93878408 27 316 C27.66 316 28.32 316 29 316 C29.309375 315.1646875 29.309375 315.1646875 29.625 314.3125 C31.17050517 311.71324131 33.07036884 310.21222029 35.421875 308.3515625 C37.94681359 306.18911509 39.9086218 303.57400394 42 301 C43.65373192 299.3204982 45.32205675 297.65531326 47 296 C47.84686371 295.1553569 48.69372742 294.31071381 49.56625366 293.44047546 C50.93023788 292.08101555 50.93023788 292.08101555 52.32177734 290.6940918 C57.47636686 285.55585174 62.62840475 280.41506117 67.77899742 275.27281475 C70.88551859 272.17151003 73.99296851 269.07114783 77.10253906 265.97290039 C80.12555475 262.96081633 83.1460611 259.94623614 86.16490555 256.92997169 C87.30815633 255.78855365 88.45227959 254.64800873 89.597332 253.50839806 C95.1231148 248.00784561 100.60612426 242.51452402 105.65615845 236.56526184 C107.3381962 234.60608034 109.13785883 232.78765553 111 231 C110.58226318 230.5875 110.16452637 230.175 109.73413086 229.75 C95.03549188 215.21159181 95.03549188 215.21159181 90.88305664 210.05126953 C88.9690685 207.86096581 88.9690685 207.86096581 86.27197266 205.82080078 C78.35333653 199.18283457 78.35333653 199.18283457 77.38476562 193.19921875 C77.39390552 189.60372358 77.69104554 186.01945104 77.97186279 182.43615723 C78.66931483 171.91016321 78.17428747 162.76071441 71.34585571 154.31942749 C64.0064788 146.08281971 55.62373053 138.85480121 47 132 C46.97854416 132.56331024 46.95708832 133.12662048 46.9349823 133.70700073 C46.83213407 136.30239327 46.71886258 138.89723515 46.60546875 141.4921875 C46.57191284 142.37801514 46.53835693 143.26384277 46.50378418 144.17651367 C45.68201412 162.32219764 38.61301059 174.34827296 26.92578125 187.63671875 C23.43269759 191.61673759 20.18031743 195.76704229 17 200 C11.50431434 195.62843186 6.85279483 190.71055035 2.17675781 185.49536133 C-0.11000449 182.96189284 -2.14472953 180.90351365 -5 179 C-5 178.34 -5 177.68 -5 177 C-5.66 177 -6.32 177 -7 177 C-7.26683594 177.72622559 -7.53367187 178.45245117 -7.80859375 179.20068359 C-8.99603097 181.9906744 -10.36771817 184.27944319 -12.0625 186.7890625 C-12.68616455 187.71847656 -13.3098291 188.64789063 -13.95239258 189.60546875 C-14.62810303 190.60191406 -15.30381348 191.59835937 -16 192.625 C-17.4419968 194.76262258 -18.88337802 196.90066051 -20.32421875 199.0390625 C-20.69995529 199.59555481 -21.07569183 200.15204712 -21.46281433 200.72540283 C-24.33442638 204.98644364 -27.15215852 209.2807568 -29.95703125 213.5859375 C-31.17713703 215.44950738 -32.39827187 217.31239788 -33.61987305 219.17498779 C-34.41441415 220.39083086 -35.20544122 221.60897763 -35.99291992 222.82940674 C-37.09646727 224.53827025 -38.2139334 226.23812116 -39.33203125 227.9375 C-39.96858643 228.91589844 -40.6051416 229.89429688 -41.26098633 230.90234375 C-42.1217981 231.94068359 -42.1217981 231.94068359 -43 233 C-46.63787651 233 -47.13064655 232.32111164 -49.75 229.9375 C-50.45640625 229.29683594 -51.1628125 228.65617188 -51.890625 227.99609375 C-54.39111995 225.62988464 -56.81445214 223.19795597 -59.2265625 220.7421875 C-61.04800415 218.95284173 -62.93714279 217.28711468 -64.875 215.625 C-68.70295187 212.32911866 -72.22764298 208.78984646 -75.7734375 205.1953125 C-78.43646934 202.56965655 -81.23255606 200.14020795 -84.0703125 197.70703125 C-87.18946136 194.94778419 -90.09751222 191.98412025 -93 189 C-89.20306823 182.27437683 -85.22103181 175.71499774 -81 169.25 C-68.93379165 150.75143793 -57.43306168 131.894274 -46 113 C-46.99 112.67 -47.98 112.34 -49 112 C-50.68359375 110.328125 -50.68359375 110.328125 -52.4375 108.25 C-53.01371094 107.57453125 -53.58992188 106.8990625 -54.18359375 106.203125 C-56.14722706 103.82142783 -58.07841364 101.41570856 -60 99 C-59.33355469 98.29617188 -58.66710937 97.59234375 -57.98046875 96.8671875 C-52.92657025 91.47228522 -48.11908833 85.99678969 -43.625 80.125 C-39.61682334 74.91056418 -35.39676322 69.96009245 -30.9375 65.125 C-30.37691895 64.51156738 -29.81633789 63.89813477 -29.23876953 63.26611328 C-27.86927744 61.80220253 -26.43957444 60.39505152 -25 59 C-24.34 59 -23.68 59 -23 59 C-23.44988281 57.88109375 -23.89976562 56.7621875 -24.36328125 55.609375 C-28.35182834 45.67384518 -32.31528477 35.72815279 -36.24984741 25.77111816 C-36.75013659 24.50656556 -37.25162313 23.24248601 -37.75430298 21.97888184 C-38.4644518 20.1929392 -39.1698283 18.40510118 -39.875 16.6171875 C-40.28492188 15.58190918 -40.69484375 14.54663086 -41.1171875 13.47998047 C-42 11 -42 11 -42 9 C-25.15664131 14.01144925 -10.57595292 31.2866239 -2 46 C-0.8553125 45.505 -0.8553125 45.505 0.3125 45 C3 44 3 44 6 44 C5.86722656 43.40316406 5.73445313 42.80632812 5.59765625 42.19140625 C4.41754287 36.39420692 3.81421506 30.7177084 3.5625 24.8125 C3.18998137 16.35537194 1.76889239 8.26595624 0 0 Z " fill="#0C1518" transform="translate(334,269)"/>
<path d="M0 0 C3.67446149 1.58337451 6.31205938 3.8772082 9.3125 6.5 C50.87198659 41.87980532 108.32127427 58.79393529 161 69 C161.64336304 69.12526062 162.28672607 69.25052124 162.94958496 69.37957764 C209.94728227 78.46667256 258.20922718 81.13456772 305.96875 78.22265625 C311.31143352 77.90012209 316.64972183 77.90030538 322 78 C323.09187199 82.64514212 323.39465392 87.27763922 323.71875 92.0234375 C323.78155151 92.91946686 323.84435303 93.81549622 323.90905762 94.73867798 C324.04181955 96.65004957 324.17283649 98.56154304 324.30224609 100.47314453 C324.49322351 103.27556129 324.69344703 106.07719936 324.89453125 108.87890625 C326.74798639 135.44543548 327.23607813 162.06273964 327.25 188.6875 C327.25088371 189.7047176 327.25088371 189.7047176 327.25178528 190.74248505 C327.27641323 231.31762159 325.02040919 271.72811189 320 312 C319.90654297 312.75609558 319.81308594 313.51219116 319.71679688 314.29119873 C317.01857976 336.03582302 313.62022534 357.57053918 309 379 C308.78310516 380.00616364 308.78310516 380.00616364 308.56182861 381.03265381 C299.0844587 424.74268148 285.80616052 466.800784 266 507 C265.45762695 508.1039209 264.91525391 509.2078418 264.35644531 510.34521484 C246.09693522 547.2066667 222.67798462 580.38632741 195.0234375 610.7578125 C193.26657604 612.70460493 191.56779748 614.68535882 189.875 616.6875 C182.24602782 625.44205824 173.81873109 633.84538934 164.9453125 641.3359375 C162.44606264 643.47385003 160.04293905 645.70814672 157.625 647.9375 C152.58001553 652.52822939 147.37851299 656.80885913 142 661 C140.64417791 662.07377275 139.28874205 663.14803327 137.93359375 664.22265625 C128.81312026 671.42355353 119.54834115 678.27971031 109.88525391 684.73388672 C108.08311816 685.94417887 106.2959521 687.17367395 104.51171875 688.41015625 C78.03684645 706.61952143 49.07768401 721.70650568 19.76953125 734.75927734 C17.32448456 735.85463412 14.894621 736.97629281 12.46875 738.11328125 C11.22955966 738.68054679 9.99001812 739.24704625 8.75 739.8125 C7.75484375 740.27269531 6.7596875 740.73289062 5.734375 741.20703125 C0.4627531 742.7358016 -4.09055061 740.72421104 -8.9296875 738.55859375 C-10.04633789 738.06166016 -11.16298828 737.56472656 -12.31347656 737.05273438 C-13.4887793 736.51970703 -14.66408203 735.98667969 -15.875 735.4375 C-17.10378494 734.88464069 -18.33262649 734.33190717 -19.56152344 733.77929688 C-27.76659379 730.07558527 -35.89086521 726.25430083 -43.87646484 722.09863281 C-46.3326244 720.82791334 -48.80111118 719.58266755 -51.26953125 718.3359375 C-92.18737391 697.51833329 -130.47808951 670.66576001 -163.78125 639.03515625 C-166.15239298 636.7843379 -168.56508978 634.61115822 -171.0625 632.5 C-179.28152723 625.41649627 -187.13022449 617.49724032 -194.12890625 609.20703125 C-195.65425033 607.40782581 -197.2045763 605.64402702 -198.77734375 603.88671875 C-207.19013139 594.42918878 -214.84501628 584.50213378 -222.32080078 574.29199219 C-223.7765587 572.30498211 -225.24353218 570.32705315 -226.71484375 568.3515625 C-242.56337343 546.86603838 -255.53560951 523.07116082 -267 499 C-267.33531738 498.29891113 -267.67063477 497.59782227 -268.01611328 496.87548828 C-284.83343621 461.40352448 -296.47406093 424.25782751 -305 386 C-305.38599365 384.29408691 -305.38599365 384.29408691 -305.77978516 382.55371094 C-313.29071947 349.07558827 -317.70592932 315.12242665 -321 281 C-321.11327637 279.845 -321.22655273 278.69 -321.34326172 277.5 C-321.63408713 274.50077682 -321.91478484 271.50091969 -322.1875 268.5 C-322.25936523 267.72076172 -322.33123047 266.94152344 -322.40527344 266.13867188 C-323.84939184 249.13329713 -324.16148508 232.08823437 -324.16796875 215.03125 C-324.17120057 212.97513814 -324.17456589 210.91902648 -324.17805481 208.86291504 C-324.18398853 204.57706167 -324.18590099 200.29122827 -324.18530273 196.00537109 C-324.18522198 191.69705969 -324.1920938 187.38885577 -324.20581055 183.08056641 C-324.31609157 147.89914216 -323.11679196 113.05138226 -320 78 C-319.36763428 78.03029297 -318.73526855 78.06058594 -318.08374023 78.09179688 C-228.75753444 82.17815449 -135.69413654 75.65987615 -54 36 C-53.20126465 35.61247559 -52.4025293 35.22495117 -51.57958984 34.82568359 C-32.86102381 25.60430161 -15.62885733 13.81154834 0 0 Z M-4.125 36.375 C-45.26779238 69.84410083 -102.87296724 85.78431496 -154 96 C-155.39581299 96.28351318 -155.39581299 96.28351318 -156.81982422 96.57275391 C-175.34046425 100.27020179 -194.20433372 102.26296295 -213 104 C-213.93384018 104.08677505 -214.86768036 104.17355011 -215.82981873 104.26295471 C-224.74733613 105.02409206 -233.63938291 105.21485599 -242.58203125 105.31640625 C-244.13287327 105.33703803 -245.68371046 105.35803581 -247.23454285 105.37937927 C-251.27031482 105.43395872 -255.30613196 105.48364422 -259.34197998 105.53222656 C-263.47867744 105.58291713 -267.61531121 105.63835213 -271.75195312 105.69335938 C-279.8345812 105.80015361 -287.91726338 105.90176538 -296 106 C-301.48091812 195.52691812 -298.15988867 284.8359033 -176.41796875 588.92578125 C-169.43639886 596.64332922 -162.09642583 604.00719407 -154.75 611.375 C-154.2303064 611.89737244 -153.71061279 612.41974487 -153.1751709 612.95794678 C-147.2991593 618.85690611 -141.37710835 624.63724046 -135 630 C-134.3723877 630.53431641 -133.74477539 631.06863281 -133.09814453 631.61914062 C-100.93257599 658.86182301 -65.42141068 681.45588826 -27.88623047 700.53125 C-24.8780986 702.0620334 -21.87859927 703.60900482 -18.87890625 705.15625 C-16.89895514 706.16768063 -14.91850325 707.17813168 -12.9375 708.1875 C-12.02726074 708.65760498 -11.11702148 709.12770996 -10.17919922 709.61206055 C-9.32471191 710.04301025 -8.47022461 710.47395996 -7.58984375 710.91796875 C-6.84597412 711.29719482 -6.10210449 711.6764209 -5.33569336 712.06713867 C-1.45534746 713.61692457 1.22196657 714.62279754 5.34257507 713.17945862 C8.25248058 711.86368238 11.08749791 710.44443049 13.92578125 708.98046875 C14.98677536 708.44786942 16.04776947 707.91527008 17.14091492 707.36653137 C19.39142936 706.23303922 21.63808102 705.09184991 23.88110352 703.94360352 C27.25439237 702.21723804 30.63840596 700.51376247 34.02539062 698.81445312 C46.28238518 692.63218323 58.31130077 686.2021732 70 679 C71.05195557 678.35409912 72.10391113 677.70819824 73.18774414 677.04272461 C75.92963225 675.33929399 78.65621427 673.61502287 81.375 671.875 C82.31706299 671.27300781 83.25912598 670.67101562 84.22973633 670.05078125 C90.66322758 665.91476605 96.89117697 661.60231112 103 657 C104.45935947 655.94053127 105.92047092 654.88347383 107.3828125 653.828125 C117.31991242 646.63246621 126.85640411 639.18033214 136 631 C136.92425781 630.175 137.84851563 629.35 138.80078125 628.5 C140.37948605 627.08180085 141.9545808 625.65955458 143.5234375 624.23046875 C144.87900009 623.00960717 146.2407975 621.79508591 147.63012695 620.61279297 C153.62579683 615.48609458 159.21623776 609.96989482 164.7902832 604.39501953 C166.42575882 602.76172552 168.06907708 601.1366153 169.71289062 599.51171875 C175.54712343 593.70776753 181.00545144 587.81187355 186.11279297 581.34863281 C187.88874711 579.13845444 189.74502383 577.06381199 191.6875 575 C208.25751487 556.51552127 221.02088294 534.61163415 233 513 C233.40460449 512.27345215 233.80920898 511.5469043 234.22607422 510.79833984 C272.43088379 441.80159421 290.1075828 361.0507958 296.66015625 282.97607422 C296.8941886 280.23796292 297.1419462 277.50466006 297.41015625 274.77001953 C300.28263609 245.09660164 300.27141295 215.40682231 300.25 185.625 C300.2496664 184.61114605 300.24933281 183.5972921 300.24898911 182.5527153 C300.35220423 144.22947629 300.35220423 144.22947629 298 106 C296.85417953 105.99120064 296.85417953 105.99120064 295.68521118 105.98222351 C223.76374397 105.40587955 223.76374397 105.40587955 197 102 C195.83968262 101.86223145 194.67936523 101.72446289 193.48388672 101.58251953 C130.07364734 93.97188306 51.1257584 76.41346092 2 33 C-0.92161928 33 -1.92014672 34.48405803 -4.125 36.375 Z " fill="#0D161B" transform="translate(511,146)"/>
<path d="M0 0 C2.475 0.99 2.475 0.99 5 2 C5 2.66 5 3.32 5 4 C5.61875 3.814375 6.2375 3.62875 6.875 3.4375 C9 3 9 3 11 4 C11.45375 3.505 11.9075 3.01 12.375 2.5 C14 1 14 1 16 1 C15.835 1.5775 15.67 2.155 15.5 2.75 C14.85537969 5.26664369 14.85537969 5.26664369 15 9 C14.9071875 10.299375 14.9071875 10.299375 14.8125 11.625 C14.874375 12.40875 14.93625 13.1925 15 14 C17.8684413 16.10232344 17.8684413 16.10232344 21 17 C21 16.34 21 15.68 21 15 C21.99 15 22.98 15 24 15 C24.33 14.34 24.66 13.68 25 13 C25.99 14.485 25.99 14.485 27 16 C26.34 16 25.68 16 25 16 C24.80664062 16.62648438 24.61328125 17.25296875 24.4140625 17.8984375 C24.15367187 18.71570313 23.89328125 19.53296875 23.625 20.375 C23.36976563 21.18710937 23.11453125 21.99921875 22.8515625 22.8359375 C22 25 22 25 20 27 C19.505 28.485 19.505 28.485 19 30 C20.32 29.67 21.64 29.34 23 29 C23 29.66 23 30.32 23 31 C26.35433109 30.05066101 29.69246505 29.10251165 33 28 C33.495 29.485 33.495 29.485 34 31 C34.99 30.67 35.98 30.34 37 30 C37 33.13751221 36.64820195 34.39757586 35 37 C33.515 37.495 33.515 37.495 32 38 C31.67 37.01 31.34 36.02 31 35 C30.7834375 36.5159375 30.7834375 36.5159375 30.5625 38.0625 C30.04166667 41.70833333 29.52083333 45.35416667 29 49 C28.34 49 27.68 49 27 49 C25.97895449 49.97850195 24.9793879 50.97980427 24 52 C23.01 52.495 23.01 52.495 22 53 C21.9175 53.9075 21.835 54.815 21.75 55.75 C20.70328127 60.28578118 18.63682427 61.19661463 15 64 C14.00471256 66.98586231 13.76685725 68.89143 14 72 C14.99 73.485 14.99 73.485 16 75 C15.649375 75.61875 15.29875 76.2375 14.9375 76.875 C14.4734375 77.926875 14.4734375 77.926875 14 79 C14.33 79.66 14.66 80.32 15 81 C13.35 81.66 11.7 82.32 10 83 C8.95785309 87.61507774 8.95785309 87.61507774 10 92 C7.03 91.67 4.06 91.34 1 91 C0.67 89.68 0.34 88.36 0 87 C0.66 86.34 1.32 85.68 2 85 C2.495 83.515 2.495 83.515 3 82 C4 81 5 80 6 79 C6 77.68 6 76.36 6 75 C4.02 75.495 4.02 75.495 2 76 C2.33 76.66 2.66 77.32 3 78 C2.34 78 1.68 78 1 78 C0.79375 78.61875 0.5875 79.2375 0.375 79.875 C-1.54849247 82.84767018 -3.67319235 83.07981916 -7 84 C-7.33 84.33 -7.66 84.66 -8 85 C-7.01 85.495 -7.01 85.495 -6 86 C-6 86.99 -6 87.98 -6 89 C-8.97 88.505 -8.97 88.505 -12 88 C-12 87.34 -12 86.68 -12 86 C-13.65 85.67 -15.3 85.34 -17 85 C-17 84.34 -17 83.68 -17 83 C-18.32 83 -19.64 83 -21 83 C-20.814375 83.5775 -20.62875 84.155 -20.4375 84.75 C-19.95976454 87.20692525 -20.24270636 88.64397534 -21 91 C-21.66 91 -22.32 91 -23 91 C-23 91.99 -23 92.98 -23 94 C-20.03 94.495 -20.03 94.495 -17 95 C-17.474375 95.5775 -17.94875 96.155 -18.4375 96.75 C-20.11158836 98.86210493 -20.11158836 98.86210493 -20.5 101.1875 C-20.665 101.785625 -20.83 102.38375 -21 103 C-21.99 103.33 -22.98 103.66 -24 104 C-24 105.65 -24 107.3 -24 109 C-23.34 107.68 -22.68 106.36 -22 105 C-21.01 105.33 -20.02 105.66 -19 106 C-19.99 106.495 -19.99 106.495 -21 107 C-21.67750383 108.66229082 -22.34185503 110.32994988 -23 112 C-25.2316527 115.75376088 -27.65110406 119.37848834 -30.08447266 123.00341797 C-30.86261044 124.16948367 -31.63248147 125.34110773 -32.39404297 126.51806641 C-33.50023333 128.22763333 -34.62963896 129.91950386 -35.765625 131.609375 C-36.43368164 132.61967773 -37.10173828 133.62998047 -37.79003906 134.67089844 C-40.4776457 137.50339593 -42.17035732 137.77167071 -46 138 C-46 137.01 -46 136.02 -46 135 C-46.66 135 -47.32 135 -48 135 C-48 135.66 -48 136.32 -48 137 C-48.66 137 -49.32 137 -50 137 C-49.67 134.69 -49.34 132.38 -49 130 C-49.66 129.67 -50.32 129.34 -51 129 C-50.195625 128.7525 -49.39125 128.505 -48.5625 128.25 C-45.828919 127.27761141 -45.828919 127.27761141 -45.1875 124.875 C-45.0946875 123.946875 -45.0946875 123.946875 -45 123 C-44.34 123 -43.68 123 -43 123 C-43 122.01 -43 121.02 -43 120 C-42.2884375 119.319375 -42.2884375 119.319375 -41.5625 118.625 C-39.48672422 116.46619319 -39.28164194 114.95724033 -39 112 C-39.20625 111.154375 -39.4125 110.30875 -39.625 109.4375 C-40 107 -40 107 -38.5234375 104.84765625 C-38.02070313 104.23792969 -37.51796875 103.62820313 -37 103 C-37.69867188 103.09539062 -38.39734375 103.19078125 -39.1171875 103.2890625 C-40.02726562 103.39992188 -40.93734375 103.51078125 -41.875 103.625 C-42.77992188 103.74101562 -43.68484375 103.85703125 -44.6171875 103.9765625 C-45.79667969 103.98816406 -45.79667969 103.98816406 -47 104 C-47.66 103.34 -48.32 102.68 -49 102 C-48.34 102 -47.68 102 -47 102 C-45.2916138 97.94258278 -44.58211367 96.253659 -46 92 C-44.515 91.01 -44.515 91.01 -43 90 C-43.99 90 -44.98 90 -46 90 C-46.66 90.99 -47.32 91.98 -48 93 C-51.4375 93.125 -51.4375 93.125 -55 93 C-56.485 93.495 -56.485 93.495 -58 94 C-57.34 92.35 -56.68 90.7 -56 89 C-54.68 89 -53.36 89 -52 89 C-51.34 88.01 -50.68 87.02 -50 86 C-50 86.99 -50 87.98 -50 89 C-49.34 89 -48.68 89 -48 89 C-48.33 88.01 -48.66 87.02 -49 86 C-46.03 85.505 -46.03 85.505 -43 85 C-43.185625 84.21625 -43.37125 83.4325 -43.5625 82.625 C-44 80 -44 80 -43 78 C-43.66 78 -44.32 78 -45 78 C-43.89131683 75.78263366 -42.50559539 73.96382007 -41 72 C-39.68 72.33 -38.36 72.66 -37 73 C-37 72.67 -37 72.34 -37 72 C-35.35 72 -33.7 72 -32 72 C-32 71.34 -32 70.68 -32 70 C-31.34 70 -30.68 70 -30 70 C-29.896875 69.071875 -29.79375 68.14375 -29.6875 67.1875 C-28.93507016 63.69896164 -28.37582748 63.37582748 -26 61 C-25.25613932 58.69011685 -24.57809297 56.35684056 -24 54 C-23.01 54.33 -22.02 54.66 -21 55 C-21 54.34 -21 53.68 -21 53 C-20.34 52.67 -19.68 52.34 -19 52 C-19 51.34 -19 50.68 -19 50 C-19.99 49.505 -19.99 49.505 -21 49 C-20.505 48.38125 -20.01 47.7625 -19.5 47.125 C-17.80777227 45.16119096 -17.80777227 45.16119096 -18 43 C-18.66 43 -19.32 43 -20 43 C-19.67 41.35 -19.34 39.7 -19 38 C-18.34 38 -17.68 38 -17 38 C-17.33 37.34 -17.66 36.68 -18 36 C-18.99 36.66 -19.98 37.32 -21 38 C-21 36.02 -21 34.04 -21 32 C-27.15785154 36.97232124 -33.21650679 41.99471189 -39.02734375 47.37109375 C-40.94159254 48.95177047 -42.73989799 49.99382483 -45 51 C-43.92380059 42.88602288 -42.07677695 35.58739171 -39 28 C-40.65 28.33 -42.3 28.66 -44 29 C-44.33 28.34 -44.66 27.68 -45 27 C-44.360625 26.608125 -43.72125 26.21625 -43.0625 25.8125 C-40.50969702 23.56912768 -40.32476592 22.32885066 -40 19 C-40 17.68 -40 16.36 -40 15 C-39.01 14.67 -38.02 14.34 -37 14 C-36.01 14.66 -35.02 15.32 -34 16 C-31.84725052 15.69159401 -31.84725052 15.69159401 -30 15 C-30.309375 15.721875 -30.61875 16.44375 -30.9375 17.1875 C-31.92560539 19.80307309 -32.5287754 22.25118982 -33 25 C-33.99 25.33 -34.98 25.66 -36 26 C-30.72 26 -25.44 26 -20 26 C-19.67 25.34 -19.34 24.68 -19 24 C-17 25 -17 25 -16 27 C-14.68 26.34 -13.36 25.68 -12 25 C-14.475 24.01 -14.475 24.01 -17 23 C-16 20 -16 20 -15 18 C-11 18 -11 18 -8 19 C-7.66666667 20.33333333 -7.33333333 21.66666667 -7 23 C-6.01 23.33 -5.02 23.66 -4 24 C-4.495 22.515 -4.495 22.515 -5 21 C-4.34 21 -3.68 21 -3 21 C-3.20625 20.4225 -3.4125 19.845 -3.625 19.25 C-4.09239476 16.44563145 -3.53712084 15.34613181 -2 13 C-1.34 12.67 -0.68 12.34 0 12 C0 11.34 0 10.68 0 10 C1.32 10 2.64 10 4 10 C3.34 9.01 2.68 8.02 2 7 C1.505 6.01 1.505 6.01 1 5 C1.33 4.34 1.66 3.68 2 3 C1.01 2.67 0.02 2.34 -1 2 C-0.67 1.34 -0.34 0.68 0 0 Z " fill="#0B1518" transform="translate(348,339)"/>
<path d="M0 0 C-2.79737008 10.31671375 -6.75771105 20.23279705 -10.53515625 30.21850586 C-11.41461656 32.54683896 -12.28949082 34.87685838 -13.1640625 37.20703125 C-13.43384918 37.91543655 -13.70363586 38.62384186 -13.9815979 39.35371399 C-15.96974033 44.55803219 -15.96974033 44.55803219 -17 50 C-15.15637744 52.57087891 -15.15637744 52.57087891 -12.5625 54.8125 C-11.71816406 55.60269531 -10.87382813 56.39289063 -10.00390625 57.20703125 C-9.34261719 57.79871094 -8.68132813 58.39039063 -8 59 C-8.495 59.99 -8.495 59.99 -9 61 C-10.65 61 -12.3 61 -14 61 C-14 60.01 -14 59.02 -14 58 C-15.65 58.66 -17.3 59.32 -19 60 C-19 58.35 -19 56.7 -19 55 C-19.99 55.66 -20.98 56.32 -22 57 C-22.66 57 -23.32 57 -24 57 C-24 58.32 -24 59.64 -24 61 C-25.65 60.67 -27.3 60.34 -29 60 C-28.79375 59.21625 -28.5875 58.4325 -28.375 57.625 C-28.25125 56.75875 -28.1275 55.8925 -28 55 C-28.66 54.34 -29.32 53.68 -30 53 C-29.67 52.01 -29.34 51.02 -29 50 C-30.32 50 -31.64 50 -33 50 C-33.33 50.66 -33.66 51.32 -34 52 C-34.99 52 -35.98 52 -37 52 C-37.59732819 49.23735711 -38 46.83967231 -38 44 C-36.68 44.33 -35.36 44.66 -34 45 C-33.01 43.35 -32.02 41.7 -31 40 C-31.9075 40.33 -32.815 40.66 -33.75 41 C-37 42 -37 42 -41 42 C-39.67300557 37.15610778 -37.54221854 33.62398769 -34.4375 29.75 C-33.99349854 29.18643799 -33.54949707 28.62287598 -33.09204102 28.04223633 C-10.77805327 0 -10.77805327 0 0 0 Z M-27 52 C-26 54 -26 54 -26 54 Z M-21 59 C-20.34 59.66 -19.68 60.32 -19 61 C-19.375 63.625 -19.375 63.625 -20 66 C-21.32 65.34 -22.64 64.68 -24 64 C-23.67 63.01 -23.34 62.02 -23 61 C-22.34 61 -21.68 61 -21 61 C-21 60.34 -21 59.68 -21 59 Z " fill="#0D151A" transform="translate(732,278)"/>
<path d="M0 0 C3.59634744 3.49359465 6.83451967 7.11098131 10 11 C9.34 11 8.68 11 8 11 C8 12.32 8 13.64 8 15 C7.01 15.33 6.02 15.66 5 16 C4.34 15.34 3.68 14.68 3 14 C1.80404463 16.8371515 1.80404463 16.8371515 1 20 C1.66 20.99 2.32 21.98 3 23 C3 23.99 3 24.98 3 26 C2.34 26 1.68 26 1 26 C1 25.34 1 24.68 1 24 C0.01 24 -0.98 24 -2 24 C-1.34 24.66 -0.68 25.32 0 26 C-0.375 28.625 -0.375 28.625 -1 31 C-1.7425 31.12375 -2.485 31.2475 -3.25 31.375 C-5.95922873 31.87044737 -5.95922873 31.87044737 -8.0625 33.0625 C-10 34 -10 34 -14 34 C-14.66 35.32 -15.32 36.64 -16 38 C-16.95519531 37.16597656 -17.91039062 36.33195312 -18.89453125 35.47265625 C-25.87583125 29.39219836 -32.88252968 23.38336788 -40.12109375 17.609375 C-40.74113281 17.07828125 -41.36117187 16.5471875 -42 16 C-42 15.67 -42 15.34 -42 15 C-38.75030231 14.88361964 -35.5011417 14.81269419 -32.25 14.75 C-31.32960938 14.71648437 -30.40921875 14.68296875 -29.4609375 14.6484375 C-22.6830193 14.5502068 -22.6830193 14.5502068 -19.4375 16.6875 C-17.83359379 19.26769694 -17.22275232 21.25590196 -16.75 24.25 C-16.60046875 25.14203125 -16.4509375 26.0340625 -16.296875 26.953125 C-16.14992188 27.96632813 -16.14992188 27.96632813 -16 29 C-15.34 29 -14.68 29 -14 29 C-13.96261719 28.11957031 -13.92523437 27.23914063 -13.88671875 26.33203125 C-13.82097656 25.17058594 -13.75523437 24.00914062 -13.6875 22.8125 C-13.62949219 21.66394531 -13.57148437 20.51539063 -13.51171875 19.33203125 C-12.75960556 14.43468354 -11.03235343 11.88830411 -7.3125 8.6875 C-6.549375 8.130625 -5.78625 7.57375 -5 7 C-5 8.32 -5 9.64 -5 11 C-3.68 11 -2.36 11 -1 11 C-1.433125 10.13375 -1.433125 10.13375 -1.875 9.25 C-2.91666667 7.16666667 -3.95833333 5.08333333 -5 3 C-4.34 3 -3.68 3 -3 3 C-3 2.34 -3 1.68 -3 1 C-2.01 0.67 -1.02 0.34 0 0 Z " fill="#0E171A" transform="translate(736,353)"/>
<path d="M0 0 C3.24969769 -0.11638036 6.4988583 -0.18730581 9.75 -0.25 C10.67039062 -0.28351563 11.59078125 -0.31703125 12.5390625 -0.3515625 C19.24965151 -0.44881741 19.24965151 -0.44881741 22.52734375 1.51171875 C24.52130587 4.88082715 25.20524288 8.25084653 25.8125 12.0625 C25.94591797 12.78244141 26.07933594 13.50238281 26.21679688 14.24414062 C26.79969341 17.6012506 27.0927065 19.72188051 26 23 C25.04480469 22.16597656 24.08960938 21.33195312 23.10546875 20.47265625 C16.12416875 14.39219836 9.11747032 8.38336788 1.87890625 2.609375 C1.25886719 2.07828125 0.63882813 1.5471875 0 1 C0 0.67 0 0.34 0 0 Z " fill="#FBD80E" transform="translate(694,368)"/>
<path d="M0 0 C0.84046875 0.01804687 1.6809375 0.03609375 2.546875 0.0546875 C4.61507395 0.10169202 6.68268441 0.17343276 8.75 0.25 C-8.13364941 17.2899795 -8.13364941 17.2899795 -18.25 23.25 C-16.18140604 8.42913272 -16.18140604 8.42913272 -11.7265625 2.078125 C-7.97975708 -0.68765566 -4.52448202 -0.18380708 0 0 Z " fill="#F1CD0F" transform="translate(321.25,366.75)"/>
<path d="M0 0 C0.66 0 1.32 0 2 0 C2.66 0.99 3.32 1.98 4 3 C5.32 2.34 6.64 1.68 8 1 C2.75179943 7.36508567 -3.02471452 13.15322975 -8.8671875 18.96484375 C-9.91258325 20.00837079 -10.95775575 21.05212152 -12.00271606 22.09608459 C-14.7327284 24.82230745 -17.46573193 27.54551181 -20.19940186 30.26806641 C-22.99675154 33.05512459 -25.79121701 35.84507146 -28.5859375 38.63476562 C-34.05449694 44.09265081 -39.52622445 49.54734559 -45 55 C-46.65 53.35 -48.3 51.7 -50 50 C-48.35 50.66 -46.7 51.32 -45 52 C-39.87024132 47.02253346 -34.76428362 42.02156248 -29.67407227 37.00366211 C-27.94019162 35.29993027 -26.2009608 33.60162538 -24.45629883 31.90893555 C-21.94742838 29.47295168 -19.45853242 27.01801157 -16.97265625 24.55859375 C-16.19036148 23.80726669 -15.40806671 23.05593964 -14.60206604 22.28184509 C-10.23189409 17.91442127 -8.00347275 15.27923571 -8 9 C-8 6.84365964 -8.4465236 5.07553648 -9 3 C-7.329375 2.814375 -7.329375 2.814375 -5.625 2.625 C-1.96896323 2.3534187 -1.96896323 2.3534187 0 0 Z " fill="#070C1A" transform="translate(410,656)"/>
<path d="M0 0 C1.65 0.66 3.3 1.32 5 2 C-0.66574049 8.92810724 -7.03033639 15.14204142 -13.375 21.4375 C-14.50413955 22.56161467 -15.63304778 23.68596174 -16.76171875 24.81054688 C-19.50515188 27.54305235 -22.25169985 30.27239009 -25 33 C-25.66 32.34 -26.32 31.68 -27 31 C-26.81769828 28.17432328 -26.20622122 27.19247314 -24.125 25.25 C-22 24 -22 24 -19 24 C-18.67 22.02 -18.34 20.04 -18 18 C-17.01 18 -16.02 18 -15 18 C-14.505 17.505 -14.01 17.01 -13.5 16.5 C-13.005 16.005 -12.51 15.51 -12 15 C-11.01 15 -10.02 15 -9 15 C-9 13.68 -9 12.36 -9 11 C-8.01 10.67 -7.02 10.34 -6 10 C-6.99 9.67 -7.98 9.34 -9 9 C-7.625 7.5 -7.625 7.5 -6 6 C-5.34 6 -4.68 6 -4 6 C-3.67 5.34 -3.34 4.68 -3 4 C-2.01 4 -1.02 4 0 4 C0 2.68 0 1.36 0 0 Z " fill="#21221C" transform="translate(485,584)"/>
<path d="M0 0 C1.26328125 0.03609375 2.5265625 0.0721875 3.828125 0.109375 C5.27445312 0.17898438 5.27445312 0.17898438 6.75 0.25 C6.75 0.58 6.75 0.91 6.75 1.25 C5.84636719 1.27578125 4.94273437 1.3015625 4.01171875 1.328125 C2.83222656 1.38484375 1.65273438 1.4415625 0.4375 1.5 C-1.32013672 1.56960938 -1.32013672 1.56960938 -3.11328125 1.640625 C-6.34478682 1.95054149 -6.34478682 1.95054149 -8.16796875 4.296875 C-8.52503906 4.94140625 -8.88210938 5.5859375 -9.25 6.25 C-8.26 6.58 -7.27 6.91 -6.25 7.25 C-5.26 8.735 -5.26 8.735 -4.25 10.25 C-4.91 10.25 -5.57 10.25 -6.25 10.25 C-6.25 10.91 -6.25 11.57 -6.25 12.25 C-5.59 12.91 -4.93 13.57 -4.25 14.25 C-7.55 16.89 -10.85 19.53 -14.25 22.25 C-15.54325763 18.3702271 -14.58941046 15.62412849 -13.5625 11.8125 C-13.40072266 11.14412109 -13.23894531 10.47574219 -13.07226562 9.78710938 C-10.95460098 1.78439916 -8.2000522 -0.30370564 0 0 Z " fill="#F3DA0F" transform="translate(318.25,367.75)"/>
<path d="M0 0 C5.29012124 4.40843437 10.18808428 9.07559794 15 14 C14.34 14.66 13.68 15.32 13 16 C11.35 14.68 9.7 13.36 8 12 C7.67 12.66 7.34 13.32 7 14 C4.9375 14.625 4.9375 14.625 3 15 C3.66 15.33 4.32 15.66 5 16 C4.34 16 3.68 16 3 16 C2.67 16.66 2.34 17.32 2 18 C1.87625 17.360625 1.7525 16.72125 1.625 16.0625 C1.41875 15.381875 1.2125 14.70125 1 14 C0.34 13.67 -0.32 13.34 -1 13 C-0.67 12.34 -0.34 11.68 0 11 C0.66 11 1.32 11 2 11 C2.33 10.01 2.66 9.02 3 8 C2.01 8.33 1.02 8.66 0 9 C0 8.34 0 7.68 0 7 C-0.99 7.33 -1.98 7.66 -3 8 C-3 7.34 -3 6.68 -3 6 C-1.68 5.34 -0.36 4.68 1 4 C0.67 2.68 0.34 1.36 0 0 Z " fill="#0E191B" transform="translate(620,542)"/>
<path d="M0 0 C6.01196241 5.15311064 11.73217406 10.44703653 17.35473633 16.00463867 C18.41718632 17.05037265 19.48499288 18.09068998 20.55786133 19.12573242 C22.12243185 20.63567242 23.67002401 22.16129653 25.21484375 23.69140625 C26.13386475 24.59060791 27.05288574 25.48980957 27.99975586 26.41625977 C30 29 30 29 30.29907227 31.83178711 C30.20037842 32.54729736 30.10168457 33.26280762 30 34 C29.68023193 33.19127441 29.68023193 33.19127441 29.35400391 32.36621094 C27.50501173 29.13497542 24.97204371 26.72601307 22.3359375 24.140625 C21.78386627 23.59138367 21.23179504 23.04214233 20.66299438 22.47625732 C18.90498185 20.72940707 17.1401311 18.98965399 15.375 17.25 C14.1792292 16.06426409 12.98391135 14.8780712 11.7890625 13.69140625 C8.8654099 10.78805679 5.93260902 7.89441296 3 5 C2.34 10.61 1.68 16.22 1 22 C0.67 22 0.34 22 0 22 C0 14.74 0 7.48 0 0 Z " fill="#FDF30E" transform="translate(380,400)"/>
<path d="M0 0 C3.00594708 3.00594708 5.31347287 6.19272003 7.6875 9.6875 C8.10322266 10.29400391 8.51894531 10.90050781 8.94726562 11.52539062 C9.96769264 13.01497948 10.98423413 14.50722877 12 16 C11.01 16 10.02 16 9 16 C8.38125 15.030625 7.7625 14.06125 7.125 13.0625 C5.31781611 9.79320392 5.31781611 9.79320392 2.25 9.125 C1.5075 9.08375 0.765 9.0425 0 9 C0.33 7.02 0.66 5.04 1 3 C-6.08470943 8.91781611 -12.52848604 15.43141333 -19 22 C-19.66 21.67 -20.32 21.34 -21 21 C-14.07 14.07 -7.14 7.14 0 0 Z " fill="#F2E20E" transform="translate(696,446)"/>
<path d="M0 0 C1.12588014 0.95729916 2.2506715 1.91587895 3.375 2.875 C4.00148438 3.40867187 4.62796875 3.94234375 5.2734375 4.4921875 C6.55836651 5.61432007 7.79371975 6.79371975 9 8 C9 7.34 9 6.68 9 6 C9.61875 5.855625 10.2375 5.71125 10.875 5.5625 C13.03258322 5.06847775 13.03258322 5.06847775 15 4 C15.33 5.65 15.66 7.3 16 9 C14.02 9.99 14.02 9.99 12 11 C12.47050781 11.53109375 12.94101562 12.0621875 13.42578125 12.609375 C14.04839844 13.31578125 14.67101562 14.0221875 15.3125 14.75 C15.92738281 15.44609375 16.54226563 16.1421875 17.17578125 16.859375 C18.87314734 18.85114506 20.45477809 20.88898915 22 23 C13.83856507 19.67426305 5.19290989 9.07157353 0 2 C0 1.34 0 0.68 0 0 Z " fill="#080E11" transform="translate(315,751)"/>
<path d="M0 0 C0.66 0 1.32 0 2 0 C3.33984375 1.36328125 3.33984375 1.36328125 4.9375 3.3125 C9.63967367 8.86146342 14.81944144 13.90375433 20 19 C19.34 19.66 18.68 20.32 18 21 C17.34 20.34 16.68 19.68 16 19 C15.34 18.731875 14.68 18.46375 14 18.1875 C11.30472997 16.58718342 11.05723765 14.88978292 10 12 C7.90855257 9.33815781 6.28216381 8.63525751 3 8 C2.34 7.67 1.68 7.34 1 7 C1 7.66 1 8.32 1 9 C0.34 9 -0.32 9 -1 9 C-0.67 6.03 -0.34 3.06 0 0 Z " fill="#12161B" transform="translate(578,499)"/>
<path d="M0 0 C-3.07517084 10.55808656 -3.07517084 10.55808656 -5 15 C-5.77321882 12.01758453 -6.41196203 9.02419525 -7 6 C-7.78375 6.515625 -8.5675 7.03125 -9.375 7.5625 C-10.24125 8.036875 -11.1075 8.51125 -12 9 C-12.66 8.67 -13.32 8.34 -14 8 C-12.75312408 7.03760548 -11.50235031 6.08025991 -10.25 5.125 C-9.55390625 4.59132813 -8.8578125 4.05765625 -8.140625 3.5078125 C-3.16062176 0 -3.16062176 0 0 0 Z " fill="#0C0E1E" transform="translate(732,278)"/>
<path d="M0 0 C2.475 0.99 2.475 0.99 5 2 C1.6189962 6.13621084 -1.66590534 9.81316569 -6 13 C-6 12.01 -6 11.02 -6 10 C-6.99 9.67 -7.98 9.34 -9 9 C-7.625 7.5 -7.625 7.5 -6 6 C-5.34 6 -4.68 6 -4 6 C-3.67 5.34 -3.34 4.68 -3 4 C-2.01 4 -1.02 4 0 4 C0 2.68 0 1.36 0 0 Z " fill="#181B1D" transform="translate(485,584)"/>
<path d="M0 0 C3.78611227 0.54087318 5.55400767 2.11722332 8 5 C8 5.66 8 6.32 8 7 C8.556875 7.2475 9.11375 7.495 9.6875 7.75 C12.39971127 9.21606015 14.63587365 11.02989471 17 13 C16.67 13.99 16.34 14.98 16 16 C11.71357676 14.33536962 8.91382783 11.20924163 5.75 8 C5.19570313 7.4534375 4.64140625 6.906875 4.0703125 6.34375 C0 2.2533867 0 2.2533867 0 0 Z " fill="#181B1D" transform="translate(431,484)"/>
<path d="M0 0 C0 0.33 0 0.66 0 1 C-0.90363281 1.02578125 -1.80726563 1.0515625 -2.73828125 1.078125 C-3.91777344 1.13484375 -5.09726562 1.1915625 -6.3125 1.25 C-8.07013672 1.31960938 -8.07013672 1.31960938 -9.86328125 1.390625 C-13.09478682 1.70054149 -13.09478682 1.70054149 -14.91796875 4.046875 C-15.27503906 4.69140625 -15.63210938 5.3359375 -16 6 C-15.01 6.33 -14.02 6.66 -13 7 C-12.01 8.485 -12.01 8.485 -11 10 C-11.66 10 -12.32 10 -13 10 C-13 10.66 -13 11.32 -13 12 C-14.98 12 -16.96 12 -19 12 C-19.45625877 8.16742636 -19.06359538 6.13208271 -17.375 2.625 C-13.18394451 -2.09454636 -5.70089452 -0.41657416 0 0 Z " fill="#FCE40D" transform="translate(325,368)"/>
<path d="M0 0 C0.99 0.33 1.98 0.66 3 1 C3 5.95 3 10.9 3 16 C2.01 16 1.02 16 0 16 C-0.103125 15.360625 -0.20625 14.72125 -0.3125 14.0625 C-0.539375 13.381875 -0.76625 12.70125 -1 12 C-1.99 11.67 -2.98 11.34 -4 11 C-3.34 10.01 -2.68 9.02 -2 8 C-2 6.68 -2 5.36 -2 4 C-1 1.75 -1 1.75 0 0 Z " fill="#1C1F19" transform="translate(610,450)"/>
<path d="M0 0 C0.33 0.66 0.66 1.32 1 2 C1.99 1.67 2.98 1.34 4 1 C6.6875 1.4375 6.6875 1.4375 9 2 C8.01 2.66 7.02 3.32 6 4 C7.65 5.65 9.3 7.3 11 9 C8.625 10.0625 8.625 10.0625 6 11 C5.34 10.67 4.68 10.34 4 10 C1.90178785 10.39938767 1.90178785 10.39938767 0 11 C1.875 5.25 1.875 5.25 3 3 C2.01 3 1.02 3 0 3 C0 2.01 0 1.02 0 0 Z " fill="#10171A" transform="translate(689,365)"/>
<path d="M0 0 C0.33 0 0.66 0 1 0 C1.65764731 11.01559238 2.16207546 21.96086055 2 33 C1.67 33 1.34 33 1 33 C0.86722656 31.80761719 0.73445312 30.61523438 0.59765625 29.38671875 C0.41944017 27.82029322 0.24104544 26.25388802 0.0625 24.6875 C-0.02451172 23.90181641 -0.11152344 23.11613281 -0.20117188 22.30664062 C-0.28818359 21.54931641 -0.37519531 20.79199219 -0.46484375 20.01171875 C-0.58267212 18.96697388 -0.58267212 18.96697388 -0.70288086 17.90112305 C-0.97996783 15.78351766 -0.97996783 15.78351766 -2 13 C-2.99 12.67 -3.98 12.34 -5 12 C-4.34 12 -3.68 12 -3 12 C-2.67 10.02 -2.34 8.04 -2 6 C-1.67 6 -1.34 6 -1 6 C-0.67 4.02 -0.34 2.04 0 0 Z " fill="#1B1E1C" transform="translate(212,264)"/>
<path d="M0 0 C1.258125 -0.04125 2.51625 -0.0825 3.8125 -0.125 C4.52019531 -0.14820313 5.22789062 -0.17140625 5.95703125 -0.1953125 C8 0 8 0 11 2 C7.56395235 3.71802382 3.61561104 3.1196618 -0.1640625 3.09765625 C-1.07127045 3.0962413 -1.97847839 3.09482635 -2.91317749 3.09336853 C-5.81715155 3.08776096 -8.72104915 3.07520718 -11.625 3.0625 C-13.59114472 3.05748598 -15.55729065 3.0529229 -17.5234375 3.04882812 C-22.3489879 3.03778906 -27.17448097 3.02051935 -32 3 C-32 2.67 -32 2.34 -32 2 C-21.44 1.67 -10.88 1.34 0 1 C0 0.67 0 0.34 0 0 Z " fill="#172327" transform="translate(800,225)"/>
<path d="M0 0 C0.33 0 0.66 0 1 0 C1.33 2.64 1.66 5.28 2 8 C2.33 8 2.66 8 3 8 C3 11.63 3 15.26 3 19 C2.34 19 1.68 19 1 19 C0.87882813 18.22914063 0.75765625 17.45828125 0.6328125 16.6640625 C0.46523437 15.66117187 0.29765625 14.65828125 0.125 13.625 C-0.03742188 12.62726563 -0.19984375 11.62953125 -0.3671875 10.6015625 C-0.7958802 7.8574885 -0.7958802 7.8574885 -3 6 C-2.63318342 3.06546739 -2.13562754 2.13562754 0 0 Z " fill="#1A1E1E" transform="translate(212,381)"/>
<path d="M0 0 C0.33 0 0.66 0 1 0 C1.33 7.26 1.66 14.52 2 22 C1.01 22 0.02 22 -1 22 C-1.02716824 19.45826023 -1.04691969 16.91681585 -1.0625 14.375 C-1.07087891 13.66214844 -1.07925781 12.94929687 -1.08789062 12.21484375 C-1.10710296 8.02655562 -0.8267327 4.1271538 0 0 Z " fill="#1E2426" transform="translate(833,229)"/>
<path d="M0 0 C0.99 0.66 1.98 1.32 3 2 C1.68 4.97 0.36 7.94 -1 11 C-1.99 11 -2.98 11 -4 11 C-4.8125 8.3125 -4.8125 8.3125 -5 5 C-2.5625 2.125 -2.5625 2.125 0 0 Z " fill="#151B19" transform="translate(444,501)"/>
<path d="M0 0 C0 3 0 3 -2.1875 5.375 C-4.05214132 7.1153319 -5.92709394 8.84468559 -7.8125 10.5625 C-10.44527316 12.95030433 -10.44527316 12.95030433 -10 17 C-11.98 17 -13.96 17 -16 17 C-11.01595832 10.96668638 -5.58084697 5.4815829 0 0 Z " fill="#0A0B20" transform="translate(675,750)"/>
<path d="M0 0 C4.8150263 1.97085635 8.39291906 5.68237222 12.22265625 9.09960938 C15.11572787 11.62013929 17.23155263 13.27431926 21 14 C21.33 15.65 21.66 17.3 22 19 C16.62350387 15.12892279 11.53635837 10.98617775 6.5 6.6875 C5.86433105 6.14770508 5.22866211 5.60791016 4.57373047 5.05175781 C3.02884799 3.72444663 1.51159183 2.3651033 0 1 C0 0.67 0 0.34 0 0 Z " fill="#F3E910" transform="translate(699,372)"/>
<path d="M0 0 C3.37462715 0.54723683 5.08235 1.0549 8 3 C7.67 4.32 7.34 5.64 7 7 C6.01 7 5.02 7 4 7 C4 8.65 4 10.3 4 12 C2.09681116 9.14521674 1.5380901 7.58058692 0.875 4.3125 C0.70742188 3.50425781 0.53984375 2.69601562 0.3671875 1.86328125 C0.24601562 1.24839844 0.12484375 0.63351562 0 0 Z " fill="#0F131D" transform="translate(334,269)"/>
<path d="M0 0 C0.33 0.66 0.66 1.32 1 2 C-0.21484375 4.8203125 -0.21484375 4.8203125 -1.9375 8.125 C-2.50339844 9.22070312 -3.06929687 10.31640625 -3.65234375 11.4453125 C-4.09707031 12.28835938 -4.54179688 13.13140625 -5 14 C-8.3 14 -11.6 14 -15 14 C-15 13.67 -15 13.34 -15 13 C-12.03 13 -9.06 13 -6 13 C-6 12.236875 -6 11.47375 -6 10.6875 C-6 8.79166667 -6 6.89583333 -6 5 C-5.38125 4.731875 -4.7625 4.46375 -4.125 4.1875 C-1.7004767 3.04443152 -1.7004767 3.04443152 0 0 Z " fill="#FAE70E" transform="translate(663,290)"/>
<path d="M0 0 C2.32613583 3.48920374 2.24247293 4.94952546 2.1875 9.0625 C2.18105469 10.12597656 2.17460938 11.18945312 2.16796875 12.28515625 C2 15 2 15 1 17 C0.01 17 -0.98 17 -2 17 C-1.34 11.39 -0.68 5.78 0 0 Z M2 9 C2.66 9 3.32 9 4 9 C3.67 9.66 3.34 10.32 3 11 C2.67 10.34 2.34 9.68 2 9 Z " fill="#1B1C1E" transform="translate(802,468)"/>
<path d="M0 0 C2.10938683 3.80283823 3.37568554 7.87395111 4.6875 12 C4.92533203 12.7115625 5.16316406 13.423125 5.40820312 14.15625 C6.59155395 17.87634409 7.17566198 20.27904269 6 24 C5.32739649 22.23141309 4.66211605 20.46003984 4 18.6875 C3.62875 17.70136719 3.2575 16.71523438 2.875 15.69921875 C2 13 2 13 2 10 C1.01 9.67 0.02 9.34 -1 9 C-0.835 8.443125 -0.67 7.88625 -0.5 7.3125 C0.04041351 4.81308751 0.07082065 2.54954338 0 0 Z " fill="#0F0F23" transform="translate(241,563)"/>
<path d="M0 0 C0.33 0 0.66 0 1 0 C1.07654536 4.51617599 1.10228696 8.59085217 0 13 C-2.375 12.8125 -2.375 12.8125 -5 12 C-6.1875 9.5625 -6.1875 9.5625 -7 7 C-7.66 6.34 -8.32 5.68 -9 5 C-8.01 4.67 -7.02 4.34 -6 4 C-4.35 5.65 -2.7 7.3 -1 9 C-0.67 6.03 -0.34 3.06 0 0 Z " fill="#080E11" transform="translate(829,458)"/>
<path d="M0 0 C0.66 0.33 1.32 0.66 2 1 C1.67 1.33 1.34 1.66 1 2 C0.77285996 3.63066766 0.60544914 5.26976003 0.46484375 6.91015625 C0.37783203 7.89951172 0.29082031 8.88886719 0.20117188 9.90820312 C0.11416016 10.94912109 0.02714844 11.99003906 -0.0625 13.0625 C-0.15337891 14.10728516 -0.24425781 15.15207031 -0.33789062 16.22851562 C-0.56260908 18.8186915 -0.7831231 21.40915767 -1 24 C-1.33 24 -1.66 24 -2 24 C-2.25477428 20.5638936 -2.47439003 17.12642199 -2.6875 13.6875 C-2.76033203 12.71103516 -2.83316406 11.73457031 -2.90820312 10.72851562 C-2.96298828 9.79072266 -3.01777344 8.85292969 -3.07421875 7.88671875 C-3.13182373 7.02264404 -3.18942871 6.15856934 -3.2487793 5.26831055 C-3 3 -3 3 -1.49536133 1.19458008 C-1.00189209 0.80036865 -0.50842285 0.40615723 0 0 Z " fill="#05081D" transform="translate(614,427)"/>
<path d="M0 0 C0.33 0 0.66 0 1 0 C1.25477428 3.4361064 1.47439003 6.87357801 1.6875 10.3125 C1.76033203 11.28896484 1.83316406 12.26542969 1.90820312 13.27148438 C1.96298828 14.20927734 2.01777344 15.14707031 2.07421875 16.11328125 C2.13182373 16.97735596 2.18942871 17.84143066 2.2487793 18.73168945 C2 21 2 21 0.49536133 22.80541992 C0.00189209 23.19963135 -0.49157715 23.59384277 -1 24 C-1 21.36 -1 18.72 -1 16 C-1.66 16 -2.32 16 -3 16 C-2.68289063 15.29488281 -2.36578125 14.58976562 -2.0390625 13.86328125 C-0.95461714 10.87494121 -0.6035641 8.34930342 -0.375 5.1875 C-0.26285156 3.72376953 -0.26285156 3.72376953 -0.1484375 2.23046875 C-0.09945312 1.49441406 -0.05046875 0.75835937 0 0 Z " fill="#141E21" transform="translate(833,399)"/>
<path d="M0 0 C3.16115776 1.36983503 3.9927092 1.9890638 6 5 C3.03 7.475 3.03 7.475 0 10 C-0.95024979 6.30458414 -0.95024979 3.69541586 0 0 Z " fill="#080D1E" transform="translate(744,364)"/>
<path d="M0 0 C0.99 0.33 1.98 0.66 3 1 C3.99 1 4.98 1 6 1 C2.04 4.96 -1.92 8.92 -6 13 C-6 10 -6 10 -5 8 C-4.34 8 -3.68 8 -3 8 C-3 7.34 -3 6.68 -3 6 C-2.34 5.67 -1.68 5.34 -1 5 C-1.33 4.34 -1.66 3.68 -2 3 C-1.34 2.01 -0.68 1.02 0 0 Z " fill="#070D1D" transform="translate(425,644)"/>
<path d="M0 0 C1.32 0 2.64 0 4 0 C3.67 0.99 3.34 1.98 3 3 C3.33 3.99 3.66 4.98 4 6 C2.35 7.32 0.7 8.64 -1 10 C-1.99 8.68 -2.98 7.36 -4 6 C-3.01 5.34 -2.02 4.68 -1 4 C-0.27617533 1.94074861 -0.27617533 1.94074861 0 0 Z " fill="#161C1B" transform="translate(758,473)"/>
<path d="M0 0 C0.99 0.99 1.98 1.98 3 3 C3.99 2.34 4.98 1.68 6 1 C4.63629701 3.99220268 3.05091917 6.29026529 0.875 8.75 C0.06675781 9.67039062 0.06675781 9.67039062 -0.7578125 10.609375 C-1.16773438 11.06828125 -1.57765625 11.5271875 -2 12 C-2 7.47946238 -1.52179662 4.280053 0 0 Z " fill="#080D1C" transform="translate(714,645)"/>
<path d="M0 0 C2.35119399 3.52679099 2.21443452 5.02879485 2.125 9.1875 C2.10695313 10.27417969 2.08890625 11.36085938 2.0703125 12.48046875 C2.03550781 13.72763672 2.03550781 13.72763672 2 15 C1.67 15 1.34 15 1 15 C0.67 16.98 0.34 18.96 0 21 C-0.33 21 -0.66 21 -1 21 C-1.22278071 18.43802188 -1.42862563 15.87652444 -1.625 13.3125 C-1.68945312 12.59126953 -1.75390625 11.87003906 -1.8203125 11.12695312 C-2.13102342 6.87409746 -1.97020088 3.81256429 0 0 Z " fill="#1A2124" transform="translate(835,374)"/>
<path d="M0 0 C0.99 0.33 1.98 0.66 3 1 C-0.63 4.63 -4.26 8.26 -8 12 C-8 9 -8 9 -6.5 7.0625 C-4.60788553 4.88588856 -4.60788553 4.88588856 -5 1 C-3.68 1.33 -2.36 1.66 -1 2 C-0.67 1.34 -0.34 0.68 0 0 Z " fill="#060B1D" transform="translate(625,415)"/>
<path d="M0 0 C3.465 1.98 3.465 1.98 7 4 C6.34 4.66 5.68 5.32 5 6 C5 5.34 5 4.68 5 4 C3.576875 4.5259375 3.576875 4.5259375 2.125 5.0625 C-1 6 -1 6 -3 5 C-3.33 7.64 -3.66 10.28 -4 13 C-5.10336858 9.68989426 -5.13531135 7.3186024 -4 4 C-1.9375 2.6875 -1.9375 2.6875 0 2 C0 1.34 0 0.68 0 0 Z " fill="#1B1D1C" transform="translate(342,272)"/>
<path d="M0 0 C1.32 0.99 2.64 1.98 4 3 C3.67 3.66 3.34 4.32 3 5 C2.34 4.67 1.68 4.34 1 4 C1 4.99 1 5.98 1 7 C1.99 7.33 2.98 7.66 4 8 C3.67 8.66 3.34 9.32 3 10 C0.36 9.67 -2.28 9.34 -5 9 C-4 7 -4 7 -1 6 C-1 4.68 -1 3.36 -1 2 C-0.67 1.34 -0.34 0.68 0 0 Z " fill="#161F1B" transform="translate(331,237)"/>
<path d="M0 0 C5.29012124 4.40843437 10.18808428 9.07559794 15 14 C14.34 14.66 13.68 15.32 13 16 C11.5 14.625 11.5 14.625 10 13 C10 12.34 10 11.68 10 11 C9.34 11 8.68 11 8 11 C6.30859375 9.35546875 6.30859375 9.35546875 4.4375 7.1875 C3.81746094 6.47980469 3.19742188 5.77210938 2.55859375 5.04296875 C1 3 1 3 0 0 Z " fill="#1B1920" transform="translate(620,542)"/>
<path d="M0 0 C0.66 0.33 1.32 0.66 2 1 C1.01 1.33 0.02 1.66 -1 2 C-0.67 2.99 -0.34 3.98 0 5 C-0.99 5 -1.98 5 -3 5 C-6.7491557 6.14104739 -10.37743397 7.50835517 -14 9 C-14 8.34 -14 7.68 -14 7 C-11.71296692 5.80274117 -9.42115138 4.61702982 -7.125 3.4375 C-6.14853516 2.92413086 -6.14853516 2.92413086 -5.15234375 2.40039062 C-3.46470143 1.53917109 -1.73420407 0.76313297 0 0 Z " fill="#090B20" transform="translate(564,834)"/>
<path d="M0 0 C3.42724441 5.14086661 3.1015597 10.00797796 3 16 C2.01 16.33 1.02 16.66 0 17 C0 11.39 0 5.78 0 0 Z " fill="#F0C90F" transform="translate(807,382)"/>
<path d="M0 0 C0 4.18163729 -1.23094218 6.10690059 -3.9375 9.25 C-6 11 -6 11 -9 11 C-7.59155282 7.78475695 -5.89655214 5.67816132 -3.375 3.25 C-2.74335938 2.63640625 -2.11171875 2.0228125 -1.4609375 1.390625 C-0.73777344 0.70226562 -0.73777344 0.70226562 0 0 Z " fill="#E1CB10" transform="translate(454,621)"/>
<path d="M0 0 C0.33 0 0.66 0 1 0 C2.12862175 5.36095333 2.09688221 10.55306686 2 16 C1.01 16 0.02 16 -1 16 C-1.02725341 14.2709226 -1.04650987 12.54171824 -1.0625 10.8125 C-1.07410156 9.84957031 -1.08570313 8.88664062 -1.09765625 7.89453125 C-1.00486622 5.14423487 -0.62111685 2.67520409 0 0 Z " fill="#22292B" transform="translate(189,388)"/>
<path d="M0 0 C4.35970831 1.34849837 8.31341438 3.04907846 12.375 5.125 C13.43460938 5.66382813 14.49421875 6.20265625 15.5859375 6.7578125 C16.38257813 7.16773438 17.17921875 7.57765625 18 8 C17.34 8.66 16.68 9.32 16 10 C12.06683414 8.86375209 9.8020149 7.9140955 7 5 C4.71157627 3.57231222 2.36793812 2.29566426 0 1 C0 0.67 0 0.34 0 0 Z " fill="#F2E40D" transform="translate(535,196)"/>
<path d="M0 0 C0.99 0.33 1.98 0.66 3 1 C0.22719294 4.08089673 -2.06326356 5.68775452 -6 7 C-6.33 5.35 -6.66 3.7 -7 2 C-6.030625 1.855625 -5.06125 1.71125 -4.0625 1.5625 C-1.13513227 1.32437659 -1.13513227 1.32437659 0 0 Z " fill="#182125" transform="translate(682,777)"/>
<path d="M0 0 C0.99 0.33 1.98 0.66 3 1 C3 1.99 3 2.98 3 4 C3.66 4 4.32 4 5 4 C5.33 4.99 5.66 5.98 6 7 C5.01 7.33 4.02 7.66 3 8 C2.67 9.65 2.34 11.3 2 13 C1.67 13 1.34 13 1 13 C-0.10228696 8.59085217 -0.07654536 4.51617599 0 0 Z " fill="#050A0D" transform="translate(197,475)"/>
<path d="M0 0 C0.66 0 1.32 0 2 0 C3.76462683 3.08809695 4 4.23312136 4 8 C4.66 8.33 5.32 8.66 6 9 C3 9 3 9 1.61328125 7.6875 C0.40885417 6.125 -0.79557292 4.5625 -2 3 C-1.34 2.01 -0.68 1.02 0 0 Z " fill="#141B1E" transform="translate(338,771)"/>
<path d="M0 0 C0.66 0.99 1.32 1.98 2 3 C0.15794162 5.54379491 -1.72478134 7.83312509 -4 10 C-4.66 8.68 -5.32 7.36 -6 6 C-5.01 5.67 -4.02 5.34 -3 5 C-1.8499169 3.03327085 -1.8499169 3.03327085 -1 1 C-0.67 0.67 -0.34 0.34 0 0 Z " fill="#22241C" transform="translate(349,597)"/>
<path d="M0 0 C2.475 0.99 2.475 0.99 5 2 C4.67 2.99 4.34 3.98 4 5 C1.36 5 -1.28 5 -4 5 C-2.68 3.35 -1.36 1.7 0 0 Z " fill="#1E211B" transform="translate(376,570)"/>
<path d="M0 0 C2 4 2 4 2 6 C-3.625 8 -3.625 8 -7 8 C-4.69 5.36 -2.38 2.72 0 0 Z " fill="#080C1D" transform="translate(705,299)"/>
<path d="M0 0 C0 0.99 0 1.98 0 3 C-0.639375 3.28875 -1.27875 3.5775 -1.9375 3.875 C-4.15206079 4.82823451 -4.15206079 4.82823451 -5 7 C-7.475 6.01 -7.475 6.01 -10 5 C-9.67 4.01 -9.34 3.02 -9 2 C-3.21052632 0 -3.21052632 0 0 0 Z " fill="#161D20" transform="translate(401,204)"/>
<path d="M0 0 C0.99 0.33 1.98 0.66 3 1 C2.02016244 3.44959389 1.38443195 4.75652643 -0.875 6.1875 C-2.90418414 6.96336453 -4.8771208 7.54509731 -7 8 C-5.625 6 -5.625 6 -4 4 C-3.34 4 -2.68 4 -2 4 C-1.34 2.68 -0.68 1.36 0 0 Z " fill="#23221D" transform="translate(357,589)"/>
<path d="M0 0 C0.93065133 2.60582371 1.14917407 3.64198224 0.0625 6.25 C-0.4634375 7.11625 -0.4634375 7.11625 -1 8 C-2.98 8 -4.96 8 -7 8 C-6.02133662 6.85373678 -5.04205413 5.70800212 -4.0625 4.5625 C-3.51722656 3.92441406 -2.97195313 3.28632812 -2.41015625 2.62890625 C-1.63204305 1.73008851 -0.84063472 0.84063472 0 0 Z " fill="#21201C" transform="translate(387,559)"/>
<path d="M0 0 C0.78375 0.185625 1.5675 0.37125 2.375 0.5625 C4.97089775 1.25962266 4.97089775 1.25962266 7 0 C7.33 0.99 7.66 1.98 8 3 C6.68 3.99 5.36 4.98 4 6 C1 4 1 4 0.3125 1.875 C0.209375 1.25625 0.10625 0.6375 0 0 Z " fill="#1A1F1A" transform="translate(768,463)"/>
<path d="M0 0 C0.66 0.33 1.32 0.66 2 1 C-1.96 6.94 -1.96 6.94 -6 13 C-7 9 -7 9 -6 6 C-5.01 6 -4.02 6 -3 6 C-2.690625 5.195625 -2.38125 4.39125 -2.0625 3.5625 C-1 1 -1 1 0 0 Z " fill="#F1E20C" transform="translate(280,393)"/>
<path d="M0 0 C0.680625 -0.00515625 1.36125 -0.0103125 2.0625 -0.015625 C4 0.25 4 0.25 7 2.25 C5.625 4.25 5.625 4.25 4 6.25 C3.34 6.25 2.68 6.25 2 6.25 C2.33 4.6 2.66 2.95 3 1.25 C-0.3 1.58 -3.6 1.91 -7 2.25 C-4.00261059 0.25174039 -3.36652492 -0.02550398 0 0 Z " fill="#080E11" transform="translate(363,213.75)"/>
<path d="M0 0 C3.7952131 1.49097658 5.61042731 3.75700849 8 7 C4.79604584 7 2.90600261 6.25664978 0 5 C0 3.35 0 1.7 0 0 Z " fill="#21221D" transform="translate(590,512)"/>
<path d="M0 0 C1.32 0.66 2.64 1.32 4 2 C3.67 2.66 3.34 3.32 3 4 C2.01 4 1.02 4 0 4 C0 5.65 0 7.3 0 9 C-0.66 9 -1.32 9 -2 9 C-2.6875 6.1875 -2.6875 6.1875 -3 3 C-1.5625 1.125 -1.5625 1.125 0 0 Z " fill="#080E19" transform="translate(584,340)"/>
<path d="M0 0 C1.98 0.495 1.98 0.495 4 1 C4 1.66 4 2.32 4 3 C6.31 3 8.62 3 11 3 C7.09971775 5.60018816 3.52565431 5.15085514 -1 5 C-0.67 3.35 -0.34 1.7 0 0 Z " fill="#070D21" transform="translate(332,241)"/>
<path d="M0 0 C2.31 0.66 4.62 1.32 7 2 C7 2.66 7 3.32 7 4 C7.78375 4.28875 8.5675 4.5775 9.375 4.875 C12 6 12 6 14 8 C10.0397381 7.43726296 7.47032673 6.26476935 4.1875 4 C3.39730469 3.46375 2.60710937 2.9275 1.79296875 2.375 C1.20128906 1.92125 0.60960937 1.4675 0 1 C0 0.67 0 0.34 0 0 Z " fill="#090C0E" transform="translate(428,845)"/>
<path d="M0 0 C2.125 0.375 2.125 0.375 4 1 C4 1.99 4 2.98 4 4 C3.030625 4.12375 2.06125 4.2475 1.0625 4.375 C-0.4534375 4.684375 -0.4534375 4.684375 -2 5 C-2.33 5.66 -2.66 6.32 -3 7 C-3.99 6.67 -4.98 6.34 -6 6 C-5.34 6 -4.68 6 -4 6 C-3.71125 5.38125 -3.4225 4.7625 -3.125 4.125 C-2 2 -2 2 0 0 Z " fill="#23231C" transform="translate(367,579)"/>
<path d="M0 0 C5.625 -0.25 5.625 -0.25 9 2 C9 2.66 9 3.32 9 4 C6.03 3.67 3.06 3.34 0 3 C0 2.01 0 1.02 0 0 Z " fill="#181C20" transform="translate(659,238)"/>
<path d="M0 0 C2.31 0.33 4.62 0.66 7 1 C7 1.99 7 2.98 7 4 C9.43750025 6.68767578 9.43750025 6.68767578 12 9 C8.98472262 7.59422879 6.4052059 5.93873852 3.75 3.9375 C3.04359375 3.41027344 2.3371875 2.88304687 1.609375 2.33984375 C1.07828125 1.89769531 0.5471875 1.45554687 0 1 C0 0.67 0 0.34 0 0 Z " fill="#F4E60F" transform="translate(399,793)"/>
<path d="M0 0 C0.66 0.33 1.32 0.66 2 1 C-0.64 3.64 -3.28 6.28 -6 9 C-6 6.16032769 -5.59732819 3.76264289 -5 1 C-4.01 1.33 -3.02 1.66 -2 2 C-1.34 1.34 -0.68 0.68 0 0 Z " fill="#04091F" transform="translate(416,657)"/>
<path d="M0 0 C0.598125 0.350625 1.19625 0.70125 1.8125 1.0625 C0.8225 2.5475 0.8225 2.5475 -0.1875 4.0625 C-1.5075 4.0625 -2.8275 4.0625 -4.1875 4.0625 C-4.5175 2.7425 -4.8475 1.4225 -5.1875 0.0625 C-2.1875 -0.9375 -2.1875 -0.9375 0 0 Z " fill="#121B1F" transform="translate(242.1875,627.9375)"/>
<path d="M0 0 C3.7952131 1.49097658 5.61042731 3.75700849 8 7 C7.01 7.495 7.01 7.495 6 8 C1.125 3.375 1.125 3.375 0 0 Z " fill="#DFC80F" transform="translate(330,449)"/>
<path d="M0 0 C0.99 0.33 1.98 0.66 3 1 C3 3.64 3 6.28 3 9 C2.01 9.495 2.01 9.495 1 10 C-0.60725635 6.78548731 -0.05748185 3.56387464 0 0 Z " fill="#1F2628" transform="translate(833,256)"/>
<path d="M0 0 C0.99 0.33 1.98 0.66 3 1 C3 1.66 3 2.32 3 3 C4.32 2.67 5.64 2.34 7 2 C4.82575883 4.50037734 3.26954202 5.43628586 0 6 C-1 3 -1 3 0 0 Z " fill="#080F12" transform="translate(583,847)"/>
<path d="M0 0 C0.33 2.64 0.66 5.28 1 8 C-1.04119788 6.38405168 -3.04072937 4.7143618 -5 3 C-5 2.34 -5 1.68 -5 1 C-1.125 0 -1.125 0 0 0 Z " fill="#EFD60F" transform="translate(645,560)"/>
<path d="M0 0 C1.75 0.125 1.75 0.125 4 1 C6.25 4.0625 6.25 4.0625 8 7 C5 7 5 7 2.3125 4.625 C0 2 0 2 0 0 Z " fill="#E4CF10" transform="translate(598,518)"/>
<path d="M0 0 C1.98 0.66 3.96 1.32 6 2 C5.67 2.66 5.34 3.32 5 4 C4.34 4 3.68 4 3 4 C3 4.66 3 5.32 3 6 C3.66 6.33 4.32 6.66 5 7 C4.01 7.33 3.02 7.66 2 8 C0.74335022 5.09399739 0 3.20395416 0 0 Z " fill="#141B1B" transform="translate(670,459)"/>
<path d="M0 0 C2.12132552 4.24265104 3.11647866 6.32385165 2.5625 11.125 C2.46066406 12.03507812 2.35882813 12.94515625 2.25390625 13.8828125 C2.12822266 14.93082031 2.12822266 14.93082031 2 16 C1.67 16 1.34 16 1 16 C0.08342019 10.61509359 -0.11138159 5.45769811 0 0 Z " fill="#030507" transform="translate(193,445)"/>
<path d="M0 0 C0.66 0 1.32 0 2 0 C3.2890625 1.53125 3.2890625 1.53125 4.625 3.5 C5.07101562 4.1496875 5.51703125 4.799375 5.9765625 5.46875 C6.31429688 5.9740625 6.65203125 6.479375 7 7 C5.35 7.33 3.7 7.66 2 8 C0.69951159 5.39902318 0.43528578 2.86044938 0 0 Z " fill="#191A21" transform="translate(504,419)"/>
<path d="M0 0 C-3.45029042 2.30019361 -4.94554358 2.43132515 -9 2 C-9.66 1.01 -10.32 0.02 -11 -1 C-3.57142857 -2.42857143 -3.57142857 -2.42857143 0 0 Z " fill="#1F201D" transform="translate(736,249)"/>
<path d="M0 0 C-1.65 1.65 -3.3 3.3 -5 5 C-5.33 3.35 -5.66 1.7 -6 0 C-3.50907189 -1.24546405 -2.58919267 -0.7767578 0 0 Z " fill="#171A1C" transform="translate(698,673)"/>
<path d="M0 0 C0.33 0.66 0.66 1.32 1 2 C-0.98 4.31 -2.96 6.62 -5 9 C-5.66 8.34 -6.32 7.68 -7 7 C-4.69 4.69 -2.38 2.38 0 0 Z " fill="#EAD50D" transform="translate(412,663)"/>
<path d="M0 0 C1.2065625 0.0309375 1.2065625 0.0309375 2.4375 0.0625 C1.04417426 3.42970387 -0.5414286 5.0484524 -3.5625 7.0625 C-3.5625 6.0725 -3.5625 5.0825 -3.5625 4.0625 C-2.9025 3.7325 -2.2425 3.4025 -1.5625 3.0625 C-2.2225 2.4025 -2.8825 1.7425 -3.5625 1.0625 C-2.5625 0.0625 -2.5625 0.0625 0 0 Z " fill="#060C1D" transform="translate(700.5625,665.9375)"/>
<path d="M0 0 C2 3 2 3 1.625 5.6875 C1.41875 6.450625 1.2125 7.21375 1 8 C0.34 8 -0.32 8 -1 8 C-1 8.99 -1 9.98 -1 11 C-1.66 11 -2.32 11 -3 11 C-2.01 7.37 -1.02 3.74 0 0 Z " fill="#1E1B1D" transform="translate(777,580)"/>
<path d="M0 0 C0.99 0.99 1.98 1.98 3 3 C2.67 3.66 2.34 4.32 2 5 C1.34 5 0.68 5 0 5 C-0.33 6.32 -0.66 7.64 -1 9 C-1.33 6.36 -1.66 3.72 -2 1 C-1.34 0.67 -0.68 0.34 0 0 Z " fill="#070D0F" transform="translate(207,521)"/>
<path d="M0 0 C0.99 0.33 1.98 0.66 3 1 C1.55746343 4.36591866 -0.33264727 6.51047079 -3 9 C-3.66 8.67 -4.32 8.34 -5 8 C-4.360625 7.236875 -3.72125 6.47375 -3.0625 5.6875 C-0.85767219 3.11753287 -0.85767219 3.11753287 0 0 Z " fill="#04091E" transform="translate(754,480)"/>
<path d="M0 0 C0.66 0.33 1.32 0.66 2 1 C1.67 1.99 1.34 2.98 1 4 C0.34 4 -0.32 4 -1 4 C-1.33 4.66 -1.66 5.32 -2 6 C-3.65 6 -5.3 6 -7 6 C-4.74259377 3.66475218 -2.7194239 1.81294927 0 0 Z " fill="#090E10" transform="translate(491,162)"/>
<path d="M0 0 C0.66 0.33 1.32 0.66 2 1 C1.67 1.99 1.34 2.98 1 4 C0.34 4 -0.32 4 -1 4 C-1.33 5.65 -1.66 7.3 -2 9 C-4 6 -4 6 -3.8125 3.9375 C-3 2 -3 2 0 0 Z " fill="#060C10" transform="translate(212,534)"/>
<path d="M0 0 C1.8125 0.1875 1.8125 0.1875 4 1 C5.75 3.5625 5.75 3.5625 7 6 C4 6 4 6 1.8125 4.125 C0 2 0 2 0 0 Z " fill="#232420" transform="translate(431,484)"/>
<path d="M0 0 C0.66 0 1.32 0 2 0 C2.12375 0.969375 2.2475 1.93875 2.375 2.9375 C2.684375 4.4534375 2.684375 4.4534375 3 6 C3.66 6.33 4.32 6.66 5 7 C4.01 7.33 3.02 7.66 2 8 C0.4375 5.6875 0.4375 5.6875 -1 3 C-0.67 2.01 -0.34 1.02 0 0 Z " fill="#F7DD0D" transform="translate(329,307)"/>
<path d="M0 0 C0.99 0 1.98 0 3 0 C3 1.98 3 3.96 3 6 C2.01 6.33 1.02 6.66 0 7 C-1 6 -1 6 -1.125 3.5 C-1 1 -1 1 0 0 Z " fill="#1C1F1D" transform="translate(684,286)"/>
<path d="M0 0 C-0.66 0 -1.32 0 -2 0 C-2 0.66 -2 1.32 -2 2 C-1.34 2.33 -0.68 2.66 0 3 C-0.66 3.66 -1.32 4.32 -2 5 C-2.433125 4.54625 -2.86625 4.0925 -3.3125 3.625 C-5.10798342 1.79975666 -5.10798342 1.79975666 -8 0 C-4.71303767 -0.79953138 -3.28976808 -1.09658936 0 0 Z " fill="#151F24" transform="translate(684,218)"/>
<path d="M0 0 C1.32 0.33 2.64 0.66 4 1 C2.71937515 2.7074998 1.38232443 4.37373596 0 6 C-0.66 6 -1.32 6 -2 6 C-2 5.01 -2 4.02 -2 3 C-1.34 3 -0.68 3 0 3 C0 2.01 0 1.02 0 0 Z " fill="#1C1B1F" transform="translate(665,701)"/>
<path d="M0 0 C1.64826111 2.96687001 2.44271087 5.65626525 3 9 C2.01 9.33 1.02 9.66 0 10 C-1.125 3.375 -1.125 3.375 0 0 Z " fill="#1E1B20" transform="translate(236,545)"/>
<path d="M0 0 C2.0625 2.125 2.0625 2.125 4 5 C3.75 8.3125 3.75 8.3125 3 11 C0.43383368 7.15075052 0.44902324 4.5650696 0 0 Z " fill="#080B20" transform="translate(335,270)"/>
<path d="M0 0 C3.53600465 1.91135386 5.78972846 3.62642766 8 7 C5.125 6.3125 5.125 6.3125 2 5 C0.625 2.375 0.625 2.375 0 0 Z " fill="#0A0D20" transform="translate(376,776)"/>
<path d="M0 0 C0.66 0.99 1.32 1.98 2 3 C0.35 4.32 -1.3 5.64 -3 7 C-3.1875 4.625 -3.1875 4.625 -3 2 C-2.01 1.34 -1.02 0.68 0 0 Z " fill="#1F201C" transform="translate(590,485)"/>
<path d="M0 0 C0.33 0.66 0.66 1.32 1 2 C1.99 1.67 2.98 1.34 4 1 C6.6875 1.4375 6.6875 1.4375 9 2 C8.01 2.66 7.02 3.32 6 4 C6.33 4.66 6.66 5.32 7 6 C6.401875 5.690625 5.80375 5.38125 5.1875 5.0625 C2.91043228 3.89790296 2.91043228 3.89790296 0 3 C0 2.01 0 1.02 0 0 Z " fill="#25271D" transform="translate(689,365)"/>
<path d="M0 0 C2.1875 1.3125 2.1875 1.3125 4 3 C4 3.66 4 4.32 4 5 C3.34 5 2.68 5 2 5 C2 4.34 2 3.68 2 3 C0.35 3 -1.3 3 -3 3 C-3 2.34 -3 1.68 -3 1 C-2.01 0.67 -1.02 0.34 0 0 Z M-5 3 C-3 4 -3 4 -3 4 Z " fill="#18191D" transform="translate(736,353)"/>
<path d="M0 0 C0.66 0 1.32 0 2 0 C2 0.66 2 1.32 2 2 C2.66 2 3.32 2 4 2 C4 2.99 4 3.98 4 5 C1.69 4.67 -0.62 4.34 -3 4 C-2.01 3.67 -1.02 3.34 0 3 C0 2.01 0 1.02 0 0 Z " fill="#191F1C" transform="translate(368,235)"/>
<path d="M0 0 C2.9375 0.75 2.9375 0.75 6 2 C6.875 4.125 6.875 4.125 7 6 C6.01 6.495 6.01 6.495 5 7 C4.67 6.01 4.34 5.02 4 4 C1.99983534 2.79117904 1.99983534 2.79117904 0 2 C0 1.34 0 0.68 0 0 Z " fill="#151B1A" transform="translate(506,558)"/>
<path d="M0 0 C1.32 0 2.64 0 4 0 C2.63016497 3.16115776 2.0109362 3.9927092 -1 6 C-0.67 4.02 -0.34 2.04 0 0 Z " fill="#090C1E" transform="translate(363,448)"/>
<path d="M0 0 C1.98 0.99 1.98 0.99 4 2 C4 3.98 4 5.96 4 8 C1.10067643 5.60490662 0.49831724 3.68754757 0 0 Z " fill="#080A20" transform="translate(650,435)"/>
<path d="M0 0 C0.33 0.66 0.66 1.32 1 2 C-4.17578125 5.22265625 -4.17578125 5.22265625 -6 6 C-6.99 5.67 -7.98 5.34 -9 5 C-6.3534665 2.3534665 -3.43778736 1.40058003 0 0 Z " fill="#EDDF0C" transform="translate(461,209)"/>
</svg>
